<svg width="82" height="16" viewBox="0 0 82 16" version="1.1" xmlns="http://www.w3.org/2000/svg" xmlns:xlink="http://www.w3.org/1999/xlink">
<title>Ground</title>
<desc>Created using Figma</desc>
<g id="Canvas" transform="translate(157 168)">
<g id="Ground">
<use xlink:href="#path0_fill" transform="translate(-156 -167)" fill="#875122"/>
<use xlink:href="#path1_stroke" transform="translate(-156 -167)" fill="#6E390A"/>
</g>
</g>
<defs>
<path id="path0_fill" d="M 63.2179 12.553C 68.7289 12.0899 74.4471 12.3721 79.999 12.3721C 79.999 11.4613 80.0446 9.9071 79.5086 9.1164C 78.7285 7.96567 77.9261 6.68644 77.0036 5.62812C 75.2734 3.643 72.6632 2.5042 69.7692 1.89436C 62.6581 0.395867 54.4258 -0.920101 46.8921 0.847876C 38.8654 2.73154 30.0154 2.13983 21.6678 2.13983C 20.1743 2.13983 18.5551 2.02214 17.0959 2.25611C 15.8685 2.4529 13.4165 2.29088 12.3663 2.72121C 10.4862 3.4916 7.74338 3.29766 5.74491 4.11653C 4.95925 4.43845 2.50529 5.20208 2.43422 6.09322C 2.39156 6.62806 1.85588 7.66506 1.55837 8.18619C 1.18408 8.84183 1.20451 9.3199 0.61246 9.86574C -0.936094 11.2934 0.701365 12.8372 2.74952 12.8372L 10.0015 12.8372C 13.1686 12.8372 16.7886 13.0058 19.9161 13.354C 22.5277 13.6448 24.8981 14 27.5534 14L 36.8024 14C 45.6339 14 54.4411 13.2905 63.2179 12.553Z"/>
<path id="path1_stroke" d="M 79.999 12.3721L 79.999 12.8721C 80.2752 12.8721 80.499 12.6483 80.499 12.3721L 79.999 12.3721ZM 63.2179 12.553L 63.2597 13.0513L 63.2179 12.553ZM 19.9161 13.354L 19.8608 13.851L 19.9161 13.354ZM 0.61246 9.86574L 0.273546 9.49813L 0.273546 9.49813L 0.61246 9.86574ZM 1.55837 8.18619L 1.12415 7.9383L 1.55837 8.18619ZM 2.43422 6.09322L 1.9358 6.05347L 2.43422 6.09322ZM 5.74491 4.11653L 5.93449 4.57919L 5.74491 4.11653ZM 12.3663 2.72121L 12.5559 3.18388L 12.5559 3.18388L 12.3663 2.72121ZM 17.0959 2.25611L 17.0167 1.76242L 17.0959 2.25611ZM 46.8921 0.847876L 47.0063 1.33465L 46.8921 0.847876ZM 69.7692 1.89436L 69.6661 2.38362L 69.6661 2.38362L 69.7692 1.89436ZM 77.0036 5.62812L 76.6267 5.95665L 76.6267 5.95665L 77.0036 5.62812ZM 79.5086 9.1164L 79.0947 9.39697L 79.5086 9.1164ZM 79.999 11.8721C 74.4813 11.8721 68.7147 11.5894 63.176 12.0548L 63.2597 13.0513C 68.743 12.5905 74.413 12.8721 79.999 12.8721L 79.999 11.8721ZM 63.176 12.0548C 54.3975 12.7924 45.61 13.5 36.8024 13.5L 36.8024 14.5C 45.6578 14.5 54.4848 13.7886 63.2597 13.0513L 63.176 12.0548ZM 36.8024 13.5L 27.5534 13.5L 27.5534 14.5L 36.8024 14.5L 36.8024 13.5ZM 27.5534 13.5C 24.9343 13.5 22.6057 13.1504 19.9714 12.8571L 19.8608 13.851C 22.4496 14.1392 24.8618 14.5 27.5534 14.5L 27.5534 13.5ZM 19.9714 12.8571C 16.8225 12.5065 13.1837 12.3372 10.0015 12.3372L 10.0015 13.3372C 13.1535 13.3372 16.7548 13.5052 19.8608 13.851L 19.9714 12.8571ZM 10.0015 12.3372L 2.74952 12.3372L 2.74952 13.3372L 10.0015 13.3372L 10.0015 12.3372ZM 2.74952 12.3372C 1.82947 12.3372 1.0676 11.987 0.715844 11.5662C 0.547727 11.3651 0.485379 11.1664 0.502893 10.9788C 0.520686 10.7882 0.628384 10.5311 0.951373 10.2333L 0.273546 9.49813C -0.177741 9.91418 -0.446068 10.3855 -0.492778 10.8859C -0.539767 11.3892 -0.355094 11.8442 -0.0513954 12.2075C 0.540476 12.9156 1.62142 13.3372 2.74952 13.3372L 2.74952 12.3372ZM 0.951373 10.2333C 1.31366 9.89934 1.49216 9.57764 1.62659 9.26424C 1.76523 8.94101 1.82363 8.73005 1.9926 8.43408L 1.12415 7.9383C 0.918823 8.29797 0.800291 8.65386 0.707565 8.87004C 0.610623 9.09604 0.503312 9.2863 0.273546 9.49813L 0.951373 10.2333ZM 1.9926 8.43408C 2.14669 8.16416 2.36291 7.76007 2.54766 7.3504C 2.72299 6.96162 2.90362 6.49675 2.93263 6.13297L 1.9358 6.05347C 1.92216 6.22454 1.81362 6.54558 1.63607 6.9393C 1.46794 7.31211 1.26756 7.68709 1.12415 7.9383L 1.9926 8.43408ZM 2.93263 6.13297C 2.93318 6.12607 2.95624 6.02588 3.18343 5.84406C 3.3914 5.67763 3.68916 5.50799 4.03626 5.34299C 4.74627 5.00548 5.48991 4.76136 5.93449 4.57919L 5.55533 3.65386C 5.21426 3.79362 4.33808 4.09228 3.60693 4.43984C 3.23344 4.61739 2.85529 4.82587 2.5586 5.06331C 2.28113 5.28536 1.97079 5.6148 1.9358 6.05347L 2.93263 6.13297ZM 5.93449 4.57919C 6.86189 4.19919 7.9788 4.04863 9.1636 3.89662C 10.3141 3.74903 11.5424 3.59916 12.5559 3.18388L 12.1767 2.25855C 11.3101 2.61366 10.2269 2.75201 9.03635 2.90475C 7.88011 3.05309 6.6264 3.21499 5.55533 3.65386L 5.93449 4.57919ZM 12.5559 3.18388C 12.7559 3.10191 13.0532 3.03772 13.4363 2.99099C 13.8129 2.94505 14.2403 2.91944 14.6858 2.90064C 15.5493 2.86419 16.5229 2.85436 17.175 2.7498L 17.0167 1.76242C 16.4415 1.85465 15.5754 1.8622 14.6436 1.90153C 14.1914 1.92061 13.7321 1.94748 13.3152 1.99835C 12.9048 2.04841 12.5018 2.12535 12.1767 2.25855L 12.5559 3.18388ZM 17.175 2.7498C 18.5818 2.52425 20.1209 2.63983 21.6678 2.63983L 21.6678 1.63983C 20.2277 1.63983 18.5283 1.52004 17.0167 1.76242L 17.175 2.7498ZM 21.6678 2.63983C 29.9644 2.63983 38.9057 3.23567 47.0063 1.33465L 46.7779 0.3611C 38.8251 2.22742 30.0664 1.63983 21.6678 1.63983L 21.6678 2.63983ZM 47.0063 1.33465C 54.4221 -0.405646 62.5572 0.885574 69.6661 2.38362L 69.8723 1.40511C 62.7591 -0.0938388 54.4296 -1.43456 46.7779 0.3611L 47.0063 1.33465ZM 69.6661 2.38362C 72.5079 2.98247 74.9972 4.08712 76.6267 5.95665L 77.3806 5.29959C 75.5496 3.19888 72.8184 2.02594 69.8723 1.40511L 69.6661 2.38362ZM 76.6267 5.95665C 77.523 6.98496 78.2996 8.2241 79.0947 9.39697L 79.9224 8.83584C 79.1573 7.70724 78.3292 6.38791 77.3806 5.29959L 76.6267 5.95665ZM 79.0947 9.39697C 79.2874 9.68117 79.4026 10.1579 79.4569 10.7453C 79.5099 11.3174 79.499 11.9036 79.499 12.3721L 80.499 12.3721C 80.499 11.9299 80.511 11.2836 80.4527 10.6532C 80.3958 10.038 80.2658 9.34234 79.9224 8.83584L 79.0947 9.39697Z"/>
</defs>
</svg>
