<svg width="100" height="39" viewBox="0 0 100 39" version="1.1" xmlns="http://www.w3.org/2000/svg" xmlns:xlink="http://www.w3.org/1999/xlink">
<title>Ocean&#39;s-front</title>
<desc>Created using Figma</desc>
<g id="Canvas" transform="translate(184 160)">
<g id="Ocean&#39;s-front">
<g id="Ocean-3">
<use xlink:href="#path0_fill" transform="translate(-182 -159)" fill="#56CCF2"/>
<use xlink:href="#path1_stroke" transform="translate(-182 -159)" fill="#2D9CDB"/>
</g>
<g id="Ocean-2">
<use xlink:href="#path0_fill" transform="translate(-171 -159)" fill="#56CCF2"/>
<use xlink:href="#path1_stroke" transform="translate(-171 -159)" fill="#2D9CDB"/>
</g>
<g id="Ocean-front-1">
<use xlink:href="#path0_fill" transform="translate(-182.695 -154.46)" fill="#56CCF2"/>
<use xlink:href="#path2_stroke" transform="translate(-182.695 -154.46)" fill="#2D9CDB"/>
</g>
</g>
</g>
<defs>
<path id="path0_fill" d="M 13.8948 4.0154C 11.6052 5.03303 9.35459 6.37989 6.89484 6.85984C 7.47534 6.56959 6.42261 6.3543 5.99484 6.78207C 5.68156 7.09534 5.11886 8.02741 5.09484 8.45985C 5.05179 9.23472 4.19979 10.0299 3.79484 10.6598C 3.14495 11.6708 2.59225 12.7495 2.09484 13.8376C 1.51003 15.1169 1.27596 16.9243 0.983726 18.3043C 0.819089 19.0817 0.52532 19.7993 0.294837 20.5598C 0.0930227 21.2258 -0.211726 22.7405 0.217059 23.3598C 0.570071 23.8698 1.32284 24.2427 1.80595 24.6154C 3.171 25.6684 4.93455 26.0713 6.60595 26.5598C 8.89408 27.2287 11.228 27.6008 13.4948 28.3043C 13.9594 28.4485 15.9163 29.4224 15.9837 28.8154C 16.0149 28.5346 17.0448 28.6598 17.1837 28.6598C 18.3531 28.6598 19.5094 28.4598 20.6948 28.4598C 22.2872 28.4598 23.9061 28.6598 25.4504 28.6598C 29.3745 28.6598 33.2791 28.4598 37.2059 28.4598C 39.2407 28.4598 41.364 28.4888 43.3615 28.9043C 45.3935 29.3269 47.2597 30.1626 49.2615 30.671C 51.4854 31.2358 53.7727 31.3636 55.9948 31.8821C 58.6131 32.493 61.3383 32.6542 64.006 32.2598C 68.5826 31.5833 73.2919 30.6616 77.7837 29.5598C 79.2676 29.1959 80.9645 28.9565 82.2948 28.1487C 82.8376 27.8192 83.899 27.4029 84.2504 26.8598C 85.4165 25.0577 86.0948 21.7896 86.0948 19.6598C 86.0948 16.3385 85.3764 13.3788 84.4948 10.2154C 83.5959 6.98975 82.7744 4.30429 80.2948 1.94873C 78.3627 0.113173 74.8764 -0.554182 72.4948 0.50429C 69.5818 1.79897 67.2558 5.22079 64.4948 6.90428C 64.0144 6.66405 63.9572 6.14438 63.5837 5.77094C 63.2223 5.40952 62.7182 5.15636 62.3393 4.81539C 60.9271 3.54443 59.1721 1.85144 57.0504 2.50428C 55.8983 2.85878 54.5904 3.04298 53.4948 3.50428C 52.0512 4.11213 51.1855 4.32923 49.6059 4.65984C 48.4219 4.03668 47.5179 4.05984 46.2059 4.05984C 44.5125 4.05984 43.3288 4.67747 42.006 5.75984C 41.3075 6.33126 39.462 6.9536 38.6504 6.30429C 38.3444 6.05945 37.9304 5.95564 37.5726 5.63762C 37.0107 5.13815 36.6114 4.3846 35.9837 4.0154C 35.4373 3.69397 35.0821 2.99794 34.4948 2.70429C 33.9362 2.42496 33.403 2.45984 32.7948 2.45984C 31.541 2.45984 30.3698 2.65984 29.1948 2.65984C 28.459 2.65984 27.1196 4.24786 26.4948 4.6154C 25.2553 5.34456 25.569 6.55521 24.0504 6.59318C 23.4454 6.11551 22.8703 5.43947 22.2059 5.05984C 20.772 4.24044 19.7944 3.25984 18.0059 3.25984C 16.3915 3.25984 15.3498 3.36875 13.8948 4.0154Z"/>
<path id="path1_stroke" d="M 6.89484 6.85984L 6.67123 6.41263C 6.44758 6.52445 6.34093 6.7843 6.42152 7.021C 6.50211 7.2577 6.74517 7.39847 6.99059 7.35059L 6.89484 6.85984ZM 13.8948 4.0154L 14.0979 4.4723L 14.0979 4.4723L 13.8948 4.0154ZM 22.2059 5.05984L 21.9579 5.49396L 22.2059 5.05984ZM 24.0504 6.59318L 23.7406 6.98562L 23.7406 6.98562L 24.0504 6.59318ZM 27.0712 8.50706C 27.3182 8.63055 27.6186 8.53044 27.7421 8.28345C 27.8655 8.03646 27.7654 7.73612 27.5184 7.61263L 27.0712 8.50706ZM 26.4948 4.6154L 26.7483 5.04637L 26.7483 5.04637L 26.4948 4.6154ZM 34.4948 2.70429L 34.7184 2.25707L 34.7184 2.25707L 34.4948 2.70429ZM 35.9837 4.0154L 36.2372 3.58443L 35.9837 4.0154ZM 37.5726 5.63762L 37.2404 6.01133L 37.2404 6.01133L 37.5726 5.63762ZM 38.6504 6.30429L 38.338 6.69472L 38.338 6.69472L 38.6504 6.30429ZM 42.006 5.75984L 42.3226 6.14682L 42.3226 6.14682L 42.006 5.75984ZM 49.6059 4.65984L 49.3731 5.1023L 49.6059 4.65984ZM 51.4205 6.61796C 51.5078 6.87993 51.791 7.02151 52.053 6.93419C 52.3149 6.84686 52.4565 6.5637 52.3692 6.30173L 51.4205 6.61796ZM 53.4948 3.50428L 53.6889 3.9651L 53.6889 3.96509L 53.4948 3.50428ZM 57.0504 2.50428L 57.1974 2.98217L 57.0504 2.50428ZM 62.3393 4.81539L 62.0048 5.18704L 62.0048 5.18704L 62.3393 4.81539ZM 63.5837 5.77094L 63.2302 6.1245L 63.2302 6.1245L 63.5837 5.77094ZM 64.4948 6.90428L 64.2712 7.35149L 64.2712 7.35149L 64.4948 6.90428ZM 72.6948 7.35983C 72.971 7.35983 73.1948 7.13598 73.1948 6.85983C 73.1948 6.58369 72.971 6.35983 72.6948 6.35983L 72.6948 7.35983ZM 72.4948 0.50429L 72.2918 0.0473844L 72.2918 0.0473845L 72.4948 0.50429ZM 80.2948 1.94873L 79.9505 2.31123L 79.9505 2.31123L 80.2948 1.94873ZM 84.4948 10.2154L 84.0132 10.3496L 84.4948 10.2154ZM 84.2504 26.8598L 83.8306 26.5882L 84.2504 26.8598ZM 82.2948 28.1487L 82.0353 27.7213L 82.2948 28.1487ZM 77.7837 29.5598L 77.9028 30.0455L 77.7837 29.5598ZM 64.006 32.2598L 64.0791 32.7545L 64.006 32.2598ZM 55.9948 31.8821L 55.8812 32.369L 55.9948 31.8821ZM 49.2615 30.671L 49.3846 30.1863L 49.2615 30.671ZM 43.3615 28.9043L 43.2597 29.3938L 43.3615 28.9043ZM 15.9837 28.8154L 16.4807 28.8706L 15.9837 28.8154ZM 13.4948 28.3043L 13.3466 28.7818L 13.3466 28.7818L 13.4948 28.3043ZM 6.60595 26.5598L 6.46566 27.0398L 6.46567 27.0398L 6.60595 26.5598ZM 1.80595 24.6154L 1.50055 25.0113L 1.50055 25.0113L 1.80595 24.6154ZM 0.217059 23.3598L 0.628156 23.0752L 0.628155 23.0752L 0.217059 23.3598ZM 0.294837 20.5598L 0.773349 20.7048L 0.773349 20.7048L 0.294837 20.5598ZM 0.983726 18.3043L 0.494574 18.2007L 0.494574 18.2007L 0.983726 18.3043ZM 2.09484 13.8376L 2.54957 14.0455L 2.09484 13.8376ZM 3.79484 10.6598L 4.21543 10.9302L 3.79484 10.6598ZM 5.09484 8.45985L 4.59561 8.43211L 5.09484 8.45985ZM 6.99059 7.35059C 8.27627 7.09972 9.49471 6.62491 10.665 6.09468C 11.2502 5.82951 11.8294 5.54765 12.3991 5.27162C 12.971 4.99449 13.534 4.72291 14.0979 4.4723L 13.6918 3.55849C 13.1108 3.8167 12.5339 4.09509 11.963 4.3717C 11.3898 4.64942 10.8233 4.92507 10.2523 5.18382C 9.10988 5.70141 7.97316 6.14001 6.79908 6.3691L 6.99059 7.35059ZM 14.0979 4.4723C 15.4649 3.86474 16.4292 3.75984 18.0059 3.75984L 18.0059 2.75984C 16.3537 2.75984 15.2347 2.87276 13.6918 3.55849L 14.0979 4.4723ZM 18.0059 3.75984C 18.7966 3.75984 19.4068 3.97326 20.0023 4.29306C 20.306 4.45617 20.603 4.64527 20.9253 4.85311C 21.2432 5.05812 21.5854 5.28109 21.9579 5.49396L 22.454 4.62572C 22.1096 4.42889 21.7918 4.22201 21.4672 4.0127C 21.147 3.80623 20.8189 3.59654 20.4754 3.41207C 19.7765 3.03673 19.0037 2.75984 18.0059 2.75984L 18.0059 3.75984ZM 21.9579 5.49396C 22.2388 5.65449 22.5143 5.88602 22.8133 6.15897C 23.0977 6.41875 23.4193 6.73196 23.7406 6.98562L 24.3602 6.20073C 24.0765 5.97673 23.808 5.71309 23.4876 5.42052C 23.1816 5.14113 22.8374 4.84482 22.454 4.62572L 21.9579 5.49396ZM 23.7406 6.98562C 24.3541 7.46996 24.9458 7.72008 25.5045 7.91701C 26.0771 8.11882 26.5538 8.24834 27.0712 8.50706L 27.5184 7.61263C 26.9265 7.31666 26.3331 7.14876 25.8369 6.97387C 25.3269 6.7941 24.851 6.58823 24.3602 6.20073L 23.7406 6.98562ZM 24.0629 7.09302C 24.5123 7.08178 24.8715 6.98167 25.1682 6.79182C 25.459 6.60575 25.647 6.35966 25.793 6.14129C 26.0946 5.69001 26.2532 5.33765 26.7483 5.04637L 26.2413 4.18443C 25.497 4.6223 25.1926 5.23985 24.9615 5.58567C 24.8411 5.76586 24.7454 5.87512 24.6292 5.94952C 24.5188 6.02012 24.3478 6.08558 24.0379 6.09333L 24.0629 7.09302ZM 26.7483 5.04637C 26.9534 4.92576 27.1891 4.72459 27.4096 4.52798C 27.6534 4.31062 27.8759 4.10115 28.1329 3.87566C 28.3808 3.65818 28.6147 3.4677 28.8221 3.33342C 29.048 3.18719 29.1649 3.15984 29.1948 3.15984L 29.1948 2.15984C 28.8569 2.15984 28.5304 2.331 28.2786 2.49401C 28.0084 2.66897 27.7305 2.89846 27.4735 3.12393C 27.2256 3.34139 26.9501 3.59784 26.7441 3.7816C 26.5147 3.98611 26.3487 4.12127 26.2413 4.18443L 26.7483 5.04637ZM 29.1948 3.15984C 29.807 3.15984 30.4149 3.10773 31.007 3.0581C 31.6057 3.00791 32.1919 2.95984 32.7948 2.95984L 32.7948 1.95984C 32.1439 1.95984 31.5176 2.01178 30.9235 2.06159C 30.3228 2.11195 29.7576 2.15984 29.1948 2.15984L 29.1948 3.15984ZM 32.7948 2.95984C 33.4475 2.95984 33.8417 2.93672 34.2712 3.1515L 34.7184 2.25707C 34.0307 1.91319 33.3585 1.95984 32.7948 1.95984L 32.7948 2.95984ZM 34.2712 3.1515C 34.4708 3.25128 34.6489 3.42923 34.8864 3.68771C 35.0988 3.91892 35.3786 4.23951 35.7302 4.44637L 36.2372 3.58443C 36.0425 3.46987 35.8714 3.28172 35.6228 3.01115C 35.3993 2.76784 35.1062 2.45095 34.7184 2.25707L 34.2712 3.1515ZM 35.7302 4.44637C 35.9633 4.58346 36.1728 4.80394 36.4194 5.09855C 36.6478 5.37144 36.9234 5.7295 37.2404 6.01133L 37.9048 5.26392C 37.66 5.04627 37.4549 4.77782 37.1863 4.45676C 36.9358 4.15743 36.6318 3.81654 36.2372 3.58443L 35.7302 4.44637ZM 37.2404 6.01133C 37.4694 6.21488 37.7106 6.34407 37.9015 6.44264C 38.1087 6.5497 38.2335 6.61105 38.338 6.69472L 38.9627 5.91386C 38.7613 5.7527 38.526 5.63972 38.3604 5.55416C 38.1783 5.4601 38.0336 5.37839 37.9048 5.26392L 37.2404 6.01133ZM 38.338 6.69472C 38.6439 6.93938 39.0188 7.04286 39.3787 7.07188C 39.7407 7.10108 40.1216 7.05814 40.4801 6.97771C 41.1863 6.81927 41.8991 6.49327 42.3226 6.14682L 41.6893 5.37286C 41.4144 5.59783 40.8552 5.86871 40.2612 6.00196C 39.9696 6.06739 39.6932 6.094 39.4591 6.07512C 39.2229 6.05607 39.0627 5.99385 38.9627 5.91385L 38.338 6.69472ZM 42.3226 6.14682C 43.5941 5.10649 44.6689 4.55984 46.2059 4.55984L 46.2059 3.55984C 44.3561 3.55984 43.0636 4.24846 41.6893 5.37287L 42.3226 6.14682ZM 46.2059 4.55984C 47.528 4.55984 48.3124 4.54404 49.3731 5.1023L 49.8388 4.21738C 48.5315 3.52931 47.5079 3.55984 46.2059 3.55984L 46.2059 4.55984ZM 49.3731 5.1023C 49.7434 5.29723 50.2212 5.5396 50.6424 5.82626C 51.0872 6.12895 51.3492 6.40411 51.4205 6.61796L 52.3692 6.30173C 52.1837 5.74533 51.6608 5.30969 51.205 4.99954C 50.7257 4.67336 50.1874 4.40085 49.8388 4.21738L 49.3731 5.1023ZM 49.7084 5.14924C 51.3038 4.81532 52.2039 4.59033 53.6889 3.9651L 53.3008 3.04346C 51.8984 3.63394 51.0673 3.84315 49.5035 4.17045L 49.7084 5.14924ZM 53.6889 3.96509C 54.1973 3.75102 54.765 3.59729 55.3697 3.45004C 55.9617 3.30589 56.6024 3.16524 57.1974 2.98217L 56.9034 2.02639C 56.3462 2.19781 55.757 2.32652 55.1331 2.47843C 54.522 2.62723 53.888 2.79624 53.3008 3.04346L 53.6889 3.96509ZM 57.1974 2.98217C 58.0832 2.70962 58.907 2.91444 59.7138 3.37309C 60.5364 3.84068 61.2831 4.53747 62.0048 5.18704L 62.6738 4.44374C 61.9833 3.82235 61.1464 3.03717 60.208 2.50373C 59.2539 1.96136 58.1393 1.6461 56.9034 2.02639L 57.1974 2.98217ZM 62.0048 5.18704C 62.2236 5.38399 62.4759 5.55314 62.6837 5.6968C 62.9045 5.84943 63.0855 5.97987 63.2302 6.1245L 63.9373 5.41739C 63.7205 5.2006 63.4687 5.02375 63.2524 4.8742C 63.023 4.71568 62.8338 4.58776 62.6738 4.44374L 62.0048 5.18704ZM 63.2302 6.1245C 63.3577 6.25204 63.4207 6.38934 63.5677 6.64029C 63.7012 6.86812 63.8968 7.16426 64.2712 7.35149L 64.7185 6.45706C 64.6125 6.40407 64.5392 6.32026 64.4306 6.13483C 64.3355 5.97253 64.1832 5.66329 63.9373 5.41739L 63.2302 6.1245ZM 64.2712 7.35149C 65.1816 7.80666 66.275 7.75983 67.0948 7.75983L 67.0948 6.75983C 66.1785 6.75983 65.3689 6.78229 64.7185 6.45706L 64.2712 7.35149ZM 67.0948 7.75983L 70.4948 7.75983L 70.4948 6.75983L 67.0948 6.75983L 67.0948 7.75983ZM 70.4948 7.75983C 70.9749 7.75983 71.412 7.64053 71.7695 7.54179C 72.1507 7.43652 72.4283 7.35983 72.6948 7.35983L 72.6948 6.35983C 72.2652 6.35983 71.8463 6.48314 71.5033 6.57787C 71.1366 6.67913 70.8218 6.75983 70.4948 6.75983L 70.4948 7.75983ZM 64.7551 7.33118C 66.1931 6.45439 67.5121 5.12908 68.7824 3.92077C 70.079 2.68752 71.3311 1.56866 72.6979 0.961196L 72.2918 0.0473845C 70.7455 0.734601 69.3782 1.97399 68.0932 3.19619C 66.782 4.44333 65.5575 5.67068 64.2345 6.47738L 64.7551 7.33118ZM 72.6979 0.961196C 73.7759 0.482106 75.1359 0.382835 76.4714 0.632721C 77.806 0.882444 79.0669 1.47186 79.9505 2.31123L 80.6392 1.58624C 79.5906 0.590052 78.1423 -0.0719945 76.6553 -0.350221C 75.1692 -0.628285 73.5954 -0.531997 72.2918 0.0473844L 72.6979 0.961196ZM 79.9505 2.31123C 82.3199 4.56221 83.1137 7.12196 84.0132 10.3496L 84.9765 10.0812C 84.0781 6.85754 83.2288 4.04637 80.6392 1.58624L 79.9505 2.31123ZM 84.0132 10.3496C 84.893 13.5066 85.5948 16.4109 85.5948 19.6598L 86.5948 19.6598C 86.5948 16.2662 85.8599 13.2509 84.9765 10.0812L 84.0132 10.3496ZM 85.5948 19.6598C 85.5948 20.6788 85.4316 21.9886 85.1238 23.2656C 84.8148 24.5478 84.3703 25.7542 83.8306 26.5882L 84.6702 27.1315C 85.2966 26.1634 85.7743 24.8347 86.096 23.4999C 86.4189 22.1599 86.5948 20.7707 86.5948 19.6598L 85.5948 19.6598ZM 83.8306 26.5882C 83.7288 26.7455 83.4786 26.9342 83.0984 27.1491C 82.9196 27.2501 82.7342 27.3454 82.5501 27.4406C 82.3718 27.5329 82.1882 27.6286 82.0353 27.7213L 82.5543 28.5761C 82.6729 28.5041 82.8254 28.4242 83.0098 28.3287C 83.1883 28.2363 83.3921 28.1317 83.5904 28.0196C 83.9644 27.8083 84.4206 27.5172 84.6702 27.1315L 83.8306 26.5882ZM 82.0353 27.7213C 81.4292 28.0893 80.7249 28.3363 79.9684 28.5375C 79.1823 28.7465 78.4578 28.8797 77.6646 29.0742L 77.9028 30.0455C 78.5936 29.876 79.4594 29.7076 80.2253 29.5039C 81.0208 29.2924 81.8301 29.0159 82.5543 28.5761L 82.0353 27.7213ZM 77.6646 29.0742C 73.188 30.1723 68.4942 31.0909 63.9328 31.7652L 64.0791 32.7545C 68.6711 32.0757 73.3957 31.151 77.9028 30.0455L 77.6646 29.0742ZM 63.9328 31.7652C 61.3333 32.1495 58.6715 31.9932 56.1085 31.3951L 55.8812 32.369C 58.5546 32.9928 61.3434 33.1589 64.0791 32.7545L 63.9328 31.7652ZM 56.1085 31.3951C 54.9733 31.1303 53.8239 30.9658 52.7022 30.7993C 51.573 30.6317 50.4687 30.4617 49.3846 30.1863L 49.1384 31.1556C 50.2782 31.445 51.4295 31.6213 52.5554 31.7885C 53.6889 31.9567 54.7942 32.1153 55.8812 32.369L 56.1085 31.3951ZM 49.3846 30.1863C 48.4063 29.9379 47.4608 29.6095 46.4817 29.2814C 45.5103 28.9559 44.511 28.6327 43.4633 28.4148L 43.2597 29.3938C 44.244 29.5985 45.1938 29.9045 46.164 30.2296C 47.1264 30.5521 48.1149 30.8956 49.1384 31.1556L 49.3846 30.1863ZM 43.4633 28.4148C 41.4091 27.9875 39.2378 27.9598 37.2059 27.9598L 37.2059 28.9598C 39.2436 28.9598 41.3189 28.9901 43.2597 29.3938L 43.4633 28.4148ZM 37.2059 27.9598C 35.2351 27.9598 33.2708 28.01 31.3144 28.06C 29.3558 28.11 27.405 28.1598 25.4504 28.1598L 25.4504 29.1598C 27.4199 29.1598 29.3834 29.1097 31.3399 29.0597C 33.2985 29.0097 35.25 28.9598 37.2059 28.9598L 37.2059 27.9598ZM 25.4504 28.1598C 24.6967 28.1598 23.922 28.111 23.122 28.0608C 22.3276 28.011 21.5092 27.9598 20.6948 27.9598L 20.6948 28.9598C 21.4728 28.9598 22.26 29.0087 23.0593 29.0589C 23.853 29.1087 24.6598 29.1598 25.4504 29.1598L 25.4504 28.1598ZM 20.6948 27.9598C 20.0773 27.9598 19.4707 28.012 18.8905 28.0617C 18.3034 28.112 17.7434 28.1598 17.1837 28.1598L 17.1837 29.1598C 17.7934 29.1598 18.3962 29.1077 18.9759 29.058C 19.5626 29.0077 20.127 28.9598 20.6948 28.9598L 20.6948 27.9598ZM 17.1837 28.1598C 17.1877 28.1598 17.1766 28.1596 17.1281 28.1562C 17.089 28.1535 17.0338 28.1495 16.9735 28.1457C 16.8524 28.138 16.6949 28.1302 16.5365 28.1324C 16.3863 28.1344 16.1998 28.1455 16.0349 28.1898C 15.9534 28.2118 15.8422 28.2508 15.7395 28.3274C 15.6276 28.4109 15.5097 28.5538 15.4868 28.7602L 16.4807 28.8706C 16.4655 29.0068 16.3867 29.0922 16.3376 29.1288C 16.2977 29.1586 16.2732 29.1613 16.2948 29.1555C 16.3362 29.1443 16.4217 29.134 16.5502 29.1323C 16.6706 29.1307 16.7985 29.1366 16.9106 29.1437C 16.9668 29.1472 17.0151 29.1508 17.059 29.1538C 17.0935 29.1562 17.145 29.1598 17.1837 29.1598L 17.1837 28.1598ZM 15.4868 28.7602C 15.4971 28.6675 15.5615 28.5732 15.6485 28.5286C 15.7001 28.5022 15.718 28.515 15.6522 28.5123C 15.5273 28.5072 15.3188 28.4582 15.0466 28.3673C 14.7857 28.2801 14.5087 28.1694 14.2594 28.0675C 14.0276 27.9728 13.7865 27.8713 13.643 27.8268L 13.3466 28.7818C 13.4355 28.8094 13.6131 28.8837 13.8811 28.9932C 14.1314 29.0955 14.435 29.2173 14.7298 29.3158C 15.0133 29.4105 15.3357 29.5002 15.6112 29.5115C 15.7456 29.517 15.9311 29.5074 16.1044 29.4186C 16.3132 29.3117 16.4535 29.1151 16.4807 28.8706L 15.4868 28.7602ZM 13.643 27.8268C 12.4893 27.4687 11.322 27.1961 10.1702 26.9317C 9.01303 26.6662 7.87325 26.4094 6.74623 26.0799L 6.46567 27.0398C 7.62678 27.3792 8.79804 27.6428 9.94655 27.9064C 11.1005 28.1712 12.2335 28.4364 13.3466 28.7818L 13.643 27.8268ZM 6.74623 26.0799C 5.02403 25.5765 3.38194 25.1997 2.11135 24.2195L 1.50055 25.0113C 2.96006 26.1372 4.84506 26.566 6.46566 27.0398L 6.74623 26.0799ZM 2.11135 24.2195C 1.86237 24.0274 1.49648 23.8013 1.24819 23.6286C 0.962276 23.4297 0.750223 23.2516 0.628156 23.0752L -0.194037 23.6445C 0.0369083 23.978 0.377743 24.2413 0.677238 24.4496C 1.01437 24.684 1.26642 24.8307 1.50055 25.0113L 2.11135 24.2195ZM 0.628155 23.0752C 0.586594 23.0152 0.540338 22.896 0.516417 22.6955C 0.49329 22.5016 0.495455 22.2704 0.51752 22.0215C 0.561703 21.5231 0.680211 21.0122 0.773349 20.7048L -0.183675 20.4148C -0.292351 20.7735 -0.427125 21.3529 -0.478573 21.9332C -0.504324 22.2236 -0.510563 22.5288 -0.476541 22.8139C -0.443312 23.0925 -0.366868 23.3948 -0.194037 23.6445L 0.628155 23.0752ZM 0.773349 20.7048C 0.984491 20.0081 1.30334 19.2085 1.47288 18.4079L 0.494574 18.2007C 0.33484 18.955 0.0661491 19.5904 -0.183675 20.4148L 0.773349 20.7048ZM 1.47288 18.4079C 1.54737 18.0561 1.61795 17.6781 1.68976 17.2966C 1.762 16.9127 1.83587 16.5232 1.91846 16.138C 2.08466 15.3628 2.28041 14.6343 2.54957 14.0455L 1.6401 13.6297C 1.32445 14.3202 1.11076 15.1351 0.940676 15.9284C 0.855114 16.3274 0.77912 16.7285 0.707012 17.1116C 0.634462 17.4971 0.566198 17.8625 0.494574 18.2007L 1.47288 18.4079ZM 2.54957 14.0455C 3.04114 12.9702 3.58275 11.9144 4.21543 10.9302L 3.37425 10.3895C 2.70715 11.4272 2.14336 12.5289 1.6401 13.6297L 2.54957 14.0455ZM 4.21543 10.9302C 4.30227 10.7951 4.4176 10.6445 4.55612 10.468C 4.68974 10.2977 4.84426 10.1041 4.98661 9.90595C 5.26055 9.52467 5.56393 9.03008 5.59407 8.48758L 4.59561 8.43211C 4.5827 8.66449 4.43855 8.95493 4.17449 9.32246C 4.04784 9.49873 3.91075 9.67049 3.76937 9.85067C 3.63291 10.0246 3.48988 10.2096 3.37425 10.3895L 4.21543 10.9302ZM 5.59407 8.48758C 5.59556 8.46078 5.61144 8.38132 5.666 8.24446C 5.71683 8.11695 5.7887 7.97032 5.87254 7.82073C 6.04603 7.51117 6.23878 7.24523 6.34839 7.13562L 5.64128 6.42851C 5.43762 6.63218 5.19238 6.98891 5.0002 7.33182C 4.9012 7.50846 4.80831 7.69551 4.73709 7.87416C 4.66959 8.04348 4.60613 8.24269 4.59561 8.43211L 5.59407 8.48758ZM 6.34839 7.13562C 6.37027 7.11375 6.42199 7.08096 6.51268 7.0595C 6.60183 7.03841 6.69113 7.03751 6.74873 7.04616C 6.77832 7.0506 6.78094 7.05479 6.7647 7.04713C 6.7627 7.04618 6.66074 7.00171 6.60113 6.86536C 6.51987 6.67947 6.5926 6.51584 6.64804 6.44567C 6.6885 6.39445 6.71711 6.38969 6.67123 6.41263L 7.11844 7.30706C 7.21769 7.25743 7.34038 7.18245 7.43272 7.06557C 7.54002 6.92974 7.62241 6.70501 7.51741 6.46481C 7.43406 6.27414 7.27495 6.18213 7.19123 6.14265C 7.09328 6.09646 6.98961 6.07111 6.89715 6.05723C 6.71066 6.02925 6.49285 6.03659 6.28244 6.08637C 6.07357 6.13579 5.83329 6.2365 5.64128 6.42851L 6.34839 7.13562Z"/>
<path id="path2_stroke" d="M 6.89484 6.85984L 6.67123 6.41263C 6.44758 6.52445 6.34093 6.7843 6.42152 7.021C 6.50211 7.2577 6.74517 7.39847 6.99059 7.35059L 6.89484 6.85984ZM 13.8948 4.0154L 13.6918 3.55849L 13.6918 3.55849L 13.8948 4.0154ZM 22.2059 5.05984L 21.9579 5.49396L 22.2059 5.05984ZM 24.0504 6.59318L 23.7406 6.98562L 24.0504 6.59318ZM 27.0712 8.50706C 27.3182 8.63055 27.6186 8.53044 27.7421 8.28345C 27.8655 8.03646 27.7654 7.73612 27.5184 7.61263L 27.0712 8.50706ZM 26.4948 4.6154L 26.2413 4.18443L 26.2413 4.18443L 26.4948 4.6154ZM 34.4948 2.70429L 34.2712 3.1515L 34.4948 2.70429ZM 35.9837 4.0154L 36.2372 3.58443L 35.9837 4.0154ZM 37.5726 5.63762L 37.2404 6.01133L 37.2404 6.01133L 37.5726 5.63762ZM 38.6504 6.30429L 38.9627 5.91385L 38.6504 6.30429ZM 42.006 5.75984L 41.6893 5.37287L 42.006 5.75984ZM 51.4205 6.61796C 51.5078 6.87993 51.791 7.02151 52.053 6.93419C 52.3149 6.84686 52.4565 6.5637 52.3692 6.30173L 51.4205 6.61796ZM 53.4948 3.50428L 53.6889 3.96509L 53.4948 3.50428ZM 57.0504 2.50428L 56.9034 2.02639L 57.0504 2.50428ZM 62.3393 4.81539L 62.0048 5.18704L 62.0048 5.18704L 62.3393 4.81539ZM 63.5837 5.77094L 63.9373 5.41739L 63.5837 5.77094ZM 72.6948 7.35983C 72.971 7.35983 73.1948 7.13598 73.1948 6.85983C 73.1948 6.58369 72.971 6.35983 72.6948 6.35983L 72.6948 7.35983ZM 72.4948 0.50429L 72.2918 0.0473844L 72.2918 0.0473845L 72.4948 0.50429ZM 80.2948 1.94873L 79.9505 2.31123L 79.9505 2.31123L 80.2948 1.94873ZM 84.4948 10.2154L 84.0132 10.3496L 84.4948 10.2154ZM 84.2504 26.8598L 83.8306 26.5882L 84.2504 26.8598ZM 82.2948 28.1487L 82.0353 27.7213L 82.2948 28.1487ZM 77.7837 29.5598L 77.9028 30.0455L 77.7837 29.5598ZM 64.006 32.2598L 64.0791 32.7545L 64.006 32.2598ZM 55.9948 31.8821L 55.8812 32.369L 55.9948 31.8821ZM 49.2615 30.671L 49.3846 30.1863L 49.2615 30.671ZM 43.3615 28.9043L 43.2597 29.3938L 43.3615 28.9043ZM 15.9837 28.8154L 16.4807 28.8706L 15.9837 28.8154ZM 13.4948 28.3043L 13.3466 28.7818L 13.3466 28.7818L 13.4948 28.3043ZM 6.60595 26.5598L 6.46566 27.0398L 6.46567 27.0398L 6.60595 26.5598ZM 1.80595 24.6154L 1.50055 25.0113L 1.50055 25.0113L 1.80595 24.6154ZM 0.217059 23.3598L 0.628156 23.0752L 0.628155 23.0752L 0.217059 23.3598ZM 0.294837 20.5598L 0.773349 20.7048L 0.773349 20.7048L 0.294837 20.5598ZM 0.983726 18.3043L 0.494574 18.2007L 0.494574 18.2007L 0.983726 18.3043ZM 2.09484 13.8376L 2.54957 14.0455L 2.09484 13.8376ZM 3.79484 10.6598L 4.21543 10.9302L 3.79484 10.6598ZM 5.09484 8.45985L 4.59561 8.43211L 5.09484 8.45985ZM 6.99059 7.35059C 8.27627 7.09972 9.49471 6.62491 10.665 6.09468C 11.2502 5.82951 11.8294 5.54765 12.3991 5.27162C 12.971 4.99449 13.534 4.72291 14.0979 4.4723L 13.6918 3.55849C 13.1108 3.8167 12.5339 4.09509 11.963 4.3717C 11.3898 4.64942 10.8233 4.92507 10.2523 5.18382C 9.10988 5.70141 7.97316 6.14001 6.79908 6.3691L 6.99059 7.35059ZM 14.0979 4.4723C 15.4649 3.86474 16.4292 3.75984 18.0059 3.75984L 18.0059 2.75984C 16.3537 2.75984 15.2347 2.87276 13.6918 3.55849L 14.0979 4.4723ZM 18.0059 3.75984C 18.7966 3.75984 19.4068 3.97326 20.0023 4.29306C 20.306 4.45617 20.603 4.64527 20.9253 4.85311C 21.2432 5.05812 21.5854 5.28109 21.9579 5.49396L 22.454 4.62572C 22.1096 4.42889 21.7918 4.22201 21.4672 4.0127C 21.147 3.80623 20.8189 3.59654 20.4754 3.41207C 19.7765 3.03673 19.0037 2.75984 18.0059 2.75984L 18.0059 3.75984ZM 21.9579 5.49396C 22.2388 5.65449 22.5143 5.88602 22.8133 6.15897C 23.0977 6.41875 23.4193 6.73196 23.7406 6.98562L 24.3602 6.20073C 24.0765 5.97673 23.808 5.71309 23.4876 5.42052C 23.1816 5.14113 22.8374 4.84482 22.454 4.62572L 21.9579 5.49396ZM 23.7406 6.98562C 24.3541 7.46996 24.9458 7.72008 25.5045 7.91701C 26.0771 8.11882 26.5538 8.24834 27.0712 8.50706L 27.5184 7.61263C 26.9265 7.31666 26.3331 7.14876 25.8369 6.97387C 25.3269 6.7941 24.851 6.58823 24.3602 6.20073L 23.7406 6.98562ZM 24.0629 7.09302C 24.5123 7.08178 24.8715 6.98167 25.1682 6.79182C 25.459 6.60575 25.647 6.35966 25.793 6.14129C 26.0946 5.69001 26.2532 5.33765 26.7483 5.04637L 26.2413 4.18443C 25.497 4.6223 25.1926 5.23985 24.9615 5.58567C 24.8411 5.76586 24.7454 5.87512 24.6292 5.94952C 24.5188 6.02012 24.3478 6.08558 24.0379 6.09333L 24.0629 7.09302ZM 26.7483 5.04637C 26.9534 4.92576 27.1891 4.72459 27.4096 4.52798C 27.6534 4.31062 27.8759 4.10115 28.1329 3.87566C 28.3808 3.65818 28.6147 3.4677 28.8221 3.33342C 29.048 3.18719 29.1649 3.15984 29.1948 3.15984L 29.1948 2.15984C 28.8569 2.15984 28.5304 2.331 28.2786 2.49401C 28.0084 2.66897 27.7305 2.89846 27.4735 3.12393C 27.2256 3.34139 26.9502 3.59784 26.7441 3.7816C 26.5147 3.98611 26.3487 4.12127 26.2413 4.18443L 26.7483 5.04637ZM 29.1948 3.15984C 29.807 3.15984 30.4149 3.10773 31.007 3.0581C 31.6057 3.00791 32.1919 2.95984 32.7948 2.95984L 32.7948 1.95984C 32.1439 1.95984 31.5176 2.01178 30.9235 2.06159C 30.3228 2.11195 29.7576 2.15984 29.1948 2.15984L 29.1948 3.15984ZM 32.7948 2.95984C 33.4475 2.95984 33.8417 2.93672 34.2712 3.1515L 34.7184 2.25707C 34.0307 1.91319 33.3585 1.95984 32.7948 1.95984L 32.7948 2.95984ZM 34.2712 3.1515C 34.4708 3.25128 34.6489 3.42923 34.8864 3.68771C 35.0988 3.91892 35.3786 4.23951 35.7302 4.44637L 36.2372 3.58443C 36.0425 3.46987 35.8714 3.28172 35.6228 3.01115C 35.3993 2.76784 35.1062 2.45095 34.7184 2.25707L 34.2712 3.1515ZM 35.7302 4.44637C 35.9633 4.58346 36.1728 4.80394 36.4194 5.09855C 36.6478 5.37144 36.9234 5.7295 37.2404 6.01133L 37.9048 5.26392C 37.66 5.04627 37.4549 4.77782 37.1863 4.45676C 36.9358 4.15743 36.6318 3.81654 36.2372 3.58443L 35.7302 4.44637ZM 37.2404 6.01133C 37.4694 6.21488 37.7106 6.34407 37.9015 6.44264C 38.1087 6.5497 38.2335 6.61105 38.338 6.69472L 38.9627 5.91385C 38.7613 5.7527 38.526 5.63972 38.3604 5.55416C 38.1783 5.4601 38.0336 5.37839 37.9048 5.26392L 37.2404 6.01133ZM 38.338 6.69472C 38.6439 6.93938 39.0188 7.04286 39.3787 7.07188C 39.7407 7.10108 40.1216 7.05814 40.4801 6.97771C 41.1863 6.81927 41.8991 6.49327 42.3226 6.14682L 41.6893 5.37287C 41.4144 5.59783 40.8552 5.86871 40.2612 6.00196C 39.9696 6.06739 39.6932 6.094 39.4591 6.07512C 39.2229 6.05607 39.0627 5.99385 38.9627 5.91385L 38.338 6.69472ZM 42.3226 6.14682C 43.5941 5.10649 44.6689 4.55984 46.2059 4.55984L 46.2059 3.55984C 44.3561 3.55984 43.0636 4.24846 41.6893 5.37287L 42.3226 6.14682ZM 46.2059 4.55984C 47.528 4.55984 48.3124 4.54404 49.3731 5.1023L 49.8388 4.21738C 48.5315 3.52931 47.5079 3.55984 46.2059 3.55984L 46.2059 4.55984ZM 49.3731 5.1023C 49.7434 5.29723 50.2212 5.5396 50.6424 5.82626C 51.0872 6.12895 51.3492 6.40411 51.4205 6.61796L 52.3692 6.30173C 52.1837 5.74533 51.6608 5.30969 51.205 4.99954C 50.7257 4.67336 50.1874 4.40085 49.8388 4.21738L 49.3731 5.1023ZM 49.7084 5.14924C 51.3038 4.81532 52.2039 4.59033 53.6889 3.96509L 53.3008 3.04346C 51.8984 3.63394 51.0673 3.84315 49.5035 4.17045L 49.7084 5.14924ZM 53.6889 3.96509C 54.1973 3.75102 54.765 3.59729 55.3697 3.45004C 55.9617 3.30589 56.6024 3.16524 57.1974 2.98217L 56.9034 2.02639C 56.3462 2.19781 55.757 2.32652 55.1331 2.47843C 54.522 2.62723 53.888 2.79624 53.3008 3.04346L 53.6889 3.96509ZM 57.1974 2.98217C 58.0832 2.70962 58.907 2.91444 59.7138 3.37309C 60.5364 3.84068 61.2831 4.53747 62.0048 5.18704L 62.6738 4.44374C 61.9833 3.82235 61.1464 3.03717 60.208 2.50373C 59.2539 1.96136 58.1393 1.6461 56.9034 2.02639L 57.1974 2.98217ZM 62.0048 5.18704C 62.2236 5.38399 62.4759 5.55314 62.6837 5.6968C 62.9045 5.84943 63.0855 5.97987 63.2302 6.1245L 63.9373 5.41739C 63.7205 5.2006 63.4687 5.02375 63.2524 4.8742C 63.023 4.71568 62.8338 4.58776 62.6738 4.44374L 62.0048 5.18704ZM 63.2302 6.1245C 63.3577 6.25204 63.4207 6.38934 63.5677 6.64029C 63.7012 6.86812 63.8968 7.16426 64.2712 7.35149L 64.7185 6.45706C 64.6124 6.40407 64.5392 6.32026 64.4306 6.13483C 64.3355 5.97254 64.1832 5.66329 63.9373 5.41739L 63.2302 6.1245ZM 64.2712 7.35149C 65.1816 7.80666 66.275 7.75983 67.0948 7.75983L 67.0948 6.75983C 66.1785 6.75983 65.3689 6.78229 64.7185 6.45706L 64.2712 7.35149ZM 67.0948 7.75983L 70.4948 7.75983L 70.4948 6.75983L 67.0948 6.75983L 67.0948 7.75983ZM 70.4948 7.75983C 70.9749 7.75983 71.412 7.64053 71.7695 7.54179C 72.1507 7.43652 72.4283 7.35983 72.6948 7.35983L 72.6948 6.35983C 72.2652 6.35983 71.8463 6.48314 71.5033 6.57787C 71.1366 6.67913 70.8218 6.75983 70.4948 6.75983L 70.4948 7.75983ZM 64.7551 7.33118C 66.1931 6.45439 67.5121 5.12908 68.7824 3.92077C 70.079 2.68752 71.3311 1.56866 72.6979 0.961196L 72.2918 0.0473845C 70.7455 0.734601 69.3782 1.97399 68.0932 3.19619C 66.782 4.44333 65.5575 5.67068 64.2345 6.47738L 64.7551 7.33118ZM 72.6979 0.961196C 73.7759 0.482106 75.1359 0.382835 76.4714 0.632721C 77.806 0.882444 79.0669 1.47186 79.9505 2.31123L 80.6392 1.58624C 79.5906 0.590052 78.1423 -0.0719945 76.6553 -0.350221C 75.1692 -0.628285 73.5954 -0.531997 72.2918 0.0473844L 72.6979 0.961196ZM 79.9505 2.31123C 82.3199 4.56221 83.1137 7.12196 84.0132 10.3496L 84.9765 10.0812C 84.0781 6.85754 83.2288 4.04637 80.6392 1.58624L 79.9505 2.31123ZM 84.0132 10.3496C 84.893 13.5066 85.5948 16.4109 85.5948 19.6598L 86.5948 19.6598C 86.5948 16.2662 85.8599 13.2509 84.9765 10.0812L 84.0132 10.3496ZM 85.5948 19.6598C 85.5948 20.6788 85.4316 21.9886 85.1238 23.2656C 84.8148 24.5478 84.3703 25.7542 83.8306 26.5882L 84.6702 27.1315C 85.2966 26.1634 85.7743 24.8347 86.096 23.4999C 86.4189 22.1599 86.5948 20.7707 86.5948 19.6598L 85.5948 19.6598ZM 83.8306 26.5882C 83.7288 26.7455 83.4786 26.9342 83.0984 27.1491C 82.9196 27.2501 82.7342 27.3454 82.5501 27.4406C 82.3718 27.5329 82.1882 27.6286 82.0353 27.7213L 82.5543 28.5761C 82.6729 28.5041 82.8254 28.4242 83.0098 28.3287C 83.1883 28.2363 83.3921 28.1317 83.5904 28.0196C 83.9644 27.8083 84.4206 27.5172 84.6702 27.1315L 83.8306 26.5882ZM 82.0353 27.7213C 81.4292 28.0893 80.7249 28.3363 79.9684 28.5375C 79.1823 28.7465 78.4578 28.8797 77.6646 29.0742L 77.9028 30.0455C 78.5936 29.876 79.4594 29.7076 80.2253 29.5039C 81.0208 29.2924 81.8301 29.0159 82.5543 28.5761L 82.0353 27.7213ZM 77.6646 29.0742C 73.188 30.1723 68.4942 31.0909 63.9328 31.7652L 64.0791 32.7545C 68.6711 32.0757 73.3957 31.151 77.9028 30.0455L 77.6646 29.0742ZM 63.9328 31.7652C 61.3333 32.1495 58.6715 31.9932 56.1085 31.3951L 55.8812 32.369C 58.5546 32.9928 61.3434 33.1589 64.0791 32.7545L 63.9328 31.7652ZM 56.1085 31.3951C 54.9733 31.1303 53.8239 30.9658 52.7022 30.7993C 51.573 30.6317 50.4687 30.4617 49.3846 30.1863L 49.1384 31.1556C 50.2782 31.445 51.4295 31.6213 52.5554 31.7885C 53.6889 31.9567 54.7942 32.1153 55.8812 32.369L 56.1085 31.3951ZM 49.3846 30.1863C 48.4063 29.9379 47.4608 29.6095 46.4817 29.2814C 45.5103 28.9559 44.511 28.6327 43.4633 28.4148L 43.2597 29.3938C 44.244 29.5985 45.1938 29.9045 46.164 30.2296C 47.1264 30.5521 48.1149 30.8956 49.1384 31.1556L 49.3846 30.1863ZM 43.4633 28.4148C 41.4091 27.9875 39.2378 27.9598 37.2059 27.9598L 37.2059 28.9598C 39.2436 28.9598 41.3189 28.9901 43.2597 29.3938L 43.4633 28.4148ZM 37.2059 27.9598C 35.2351 27.9598 33.2708 28.01 31.3144 28.06C 29.3558 28.11 27.405 28.1598 25.4504 28.1598L 25.4504 29.1598C 27.4199 29.1598 29.3834 29.1097 31.3399 29.0597C 33.2985 29.0097 35.25 28.9598 37.2059 28.9598L 37.2059 27.9598ZM 25.4504 28.1598C 24.6967 28.1598 23.922 28.111 23.122 28.0608C 22.3276 28.011 21.5092 27.9598 20.6948 27.9598L 20.6948 28.9598C 21.4728 28.9598 22.26 29.0087 23.0593 29.0589C 23.853 29.1087 24.6598 29.1598 25.4504 29.1598L 25.4504 28.1598ZM 20.6948 27.9598C 20.0773 27.9598 19.4707 28.012 18.8905 28.0617C 18.3034 28.112 17.7434 28.1598 17.1837 28.1598L 17.1837 29.1598C 17.7934 29.1598 18.3962 29.1077 18.9759 29.058C 19.5626 29.0077 20.127 28.9598 20.6948 28.9598L 20.6948 27.9598ZM 17.1837 28.1598C 17.1877 28.1598 17.1766 28.1596 17.1281 28.1562C 17.089 28.1535 17.0338 28.1495 16.9735 28.1457C 16.8524 28.138 16.6949 28.1302 16.5365 28.1324C 16.3863 28.1344 16.1998 28.1455 16.0349 28.1898C 15.9534 28.2118 15.8422 28.2508 15.7395 28.3274C 15.6276 28.4109 15.5097 28.5538 15.4868 28.7602L 16.4807 28.8706C 16.4655 29.0068 16.3867 29.0922 16.3376 29.1288C 16.2977 29.1586 16.2732 29.1613 16.2948 29.1555C 16.3362 29.1443 16.4217 29.134 16.5502 29.1323C 16.6706 29.1307 16.7985 29.1366 16.9106 29.1437C 16.9668 29.1472 17.0151 29.1508 17.059 29.1538C 17.0935 29.1562 17.145 29.1598 17.1837 29.1598L 17.1837 28.1598ZM 15.4868 28.7602C 15.4971 28.6675 15.5615 28.5732 15.6485 28.5286C 15.7001 28.5022 15.718 28.515 15.6522 28.5123C 15.5273 28.5072 15.3188 28.4582 15.0466 28.3673C 14.7857 28.2801 14.5087 28.1694 14.2594 28.0675C 14.0276 27.9728 13.7865 27.8713 13.643 27.8268L 13.3466 28.7818C 13.4355 28.8094 13.6131 28.8837 13.8811 28.9932C 14.1314 29.0955 14.435 29.2173 14.7298 29.3158C 15.0133 29.4105 15.3357 29.5002 15.6112 29.5115C 15.7456 29.517 15.9311 29.5074 16.1044 29.4186C 16.3132 29.3117 16.4535 29.1151 16.4807 28.8706L 15.4868 28.7602ZM 13.643 27.8268C 12.4893 27.4687 11.322 27.1961 10.1702 26.9317C 9.01303 26.6662 7.87325 26.4094 6.74623 26.0799L 6.46567 27.0398C 7.62678 27.3792 8.79804 27.6428 9.94655 27.9064C 11.1005 28.1712 12.2335 28.4364 13.3466 28.7818L 13.643 27.8268ZM 6.74623 26.0799C 5.02403 25.5765 3.38194 25.1997 2.11135 24.2195L 1.50055 25.0113C 2.96006 26.1372 4.84506 26.566 6.46566 27.0398L 6.74623 26.0799ZM 2.11135 24.2195C 1.86237 24.0274 1.49648 23.8013 1.24819 23.6286C 0.962276 23.4297 0.750223 23.2516 0.628156 23.0752L -0.194037 23.6445C 0.0369083 23.978 0.377743 24.2413 0.677238 24.4496C 1.01437 24.684 1.26642 24.8307 1.50055 25.0113L 2.11135 24.2195ZM 0.628155 23.0752C 0.586594 23.0152 0.540338 22.896 0.516417 22.6955C 0.49329 22.5016 0.495455 22.2704 0.51752 22.0215C 0.561703 21.5231 0.680211 21.0122 0.773349 20.7048L -0.183675 20.4148C -0.292351 20.7735 -0.427125 21.3529 -0.478573 21.9332C -0.504324 22.2236 -0.510563 22.5288 -0.476541 22.8139C -0.443312 23.0925 -0.366868 23.3948 -0.194037 23.6445L 0.628155 23.0752ZM 0.773349 20.7048C 0.984491 20.0081 1.30334 19.2085 1.47288 18.4079L 0.494574 18.2007C 0.33484 18.955 0.0661491 19.5904 -0.183675 20.4148L 0.773349 20.7048ZM 1.47288 18.4079C 1.54737 18.0561 1.61795 17.6781 1.68976 17.2966C 1.762 16.9127 1.83587 16.5232 1.91846 16.138C 2.08466 15.3628 2.28041 14.6343 2.54957 14.0455L 1.6401 13.6297C 1.32445 14.3202 1.11076 15.1351 0.940676 15.9284C 0.855114 16.3274 0.77912 16.7285 0.707012 17.1116C 0.634462 17.4971 0.566198 17.8625 0.494574 18.2007L 1.47288 18.4079ZM 2.54957 14.0455C 3.04114 12.9702 3.58275 11.9144 4.21543 10.9302L 3.37425 10.3895C 2.70715 11.4272 2.14336 12.5289 1.6401 13.6297L 2.54957 14.0455ZM 4.21543 10.9302C 4.30227 10.7951 4.4176 10.6445 4.55612 10.468C 4.68974 10.2977 4.84426 10.1041 4.98661 9.90595C 5.26055 9.52467 5.56393 9.03008 5.59407 8.48758L 4.59561 8.43211C 4.5827 8.66449 4.43855 8.95493 4.17449 9.32246C 4.04784 9.49873 3.91075 9.67049 3.76937 9.85067C 3.63291 10.0246 3.48988 10.2096 3.37425 10.3895L 4.21543 10.9302ZM 5.59407 8.48758C 5.59556 8.46078 5.61144 8.38132 5.666 8.24446C 5.71683 8.11695 5.7887 7.97032 5.87254 7.82073C 6.04603 7.51117 6.23878 7.24523 6.34839 7.13562L 5.64128 6.42851C 5.43762 6.63218 5.19238 6.98891 5.0002 7.33182C 4.9012 7.50846 4.80831 7.69551 4.73709 7.87416C 4.66959 8.04348 4.60613 8.24269 4.59561 8.43211L 5.59407 8.48758ZM 6.34839 7.13562C 6.37027 7.11375 6.42199 7.08096 6.51268 7.0595C 6.60183 7.03841 6.69113 7.03751 6.74873 7.04616C 6.77832 7.0506 6.78094 7.05479 6.7647 7.04713C 6.7627 7.04618 6.66074 7.00171 6.60113 6.86536C 6.51987 6.67947 6.5926 6.51584 6.64804 6.44567C 6.6885 6.39445 6.71711 6.38969 6.67123 6.41263L 7.11844 7.30706C 7.21769 7.25743 7.34038 7.18245 7.43272 7.06557C 7.54002 6.92974 7.62241 6.70501 7.51741 6.46481C 7.43406 6.27414 7.27495 6.18213 7.19123 6.14265C 7.09328 6.09646 6.98961 6.07111 6.89715 6.05723C 6.71066 6.02925 6.49285 6.03659 6.28244 6.08637C 6.07357 6.13579 5.83329 6.2365 5.64128 6.42851L 6.34839 7.13562Z"/>
</defs>
</svg>
