<svg width="22" height="22" viewBox="0 0 22 22" version="1.1" xmlns="http://www.w3.org/2000/svg" xmlns:xlink="http://www.w3.org/1999/xlink">
<title>Sailboat</title>
<desc>Created using Figma</desc>
<g id="Canvas" transform="translate(171 205)">
<g id="Sailboat">
<g id="Vector">
<use xlink:href="#path0_fill" transform="translate(-169 -186.93)" fill="#CF0000"/>
<use xlink:href="#path1_stroke" transform="translate(-169 -186.93)"/>
</g>
<g id="Vector 3">
<use xlink:href="#path2_fill" transform="translate(-165.108 -203.535)" fill="#C4C4C4"/>
<use xlink:href="#path3_stroke" transform="translate(-165.108 -203.535)"/>
</g>
<g id="Vector 4">
<use xlink:href="#path4_stroke" transform="translate(-158.784 -205)"/>
</g>
<g id="Vector 5">
<use xlink:href="#path5_fill" transform="translate(-158.784 -202.07)" fill="#E0E0E0"/>
<use xlink:href="#path6_stroke" transform="translate(-158.784 -202.07)"/>
</g>
<g id="Vector 6">
<use xlink:href="#path7_stroke" transform="translate(-160.243 -189.86)"/>
</g>
</g>
</g>
<defs>
<path id="path0_fill" d="M 18 0L 0 0L 4.05 2.93023L 15.075 2.93023L 18 0Z"/>
<path id="path1_stroke" d="M 0 0L 0 -0.5L -1.54405 -0.5L -0.293089 0.405091L 0 0ZM 18 0L 18.3539 0.353237L 19.2056 -0.5L 18 -0.5L 18 0ZM 15.075 2.93023L 15.075 3.43023L 15.2824 3.43023L 15.4289 3.28347L 15.075 2.93023ZM 4.05 2.93023L 3.75691 3.33532L 3.88809 3.43023L 4.05 3.43023L 4.05 2.93023ZM 0 0.5L 18 0.5L 18 -0.5L 0 -0.5L 0 0.5ZM 17.6461 -0.353237L 14.7211 2.577L 15.4289 3.28347L 18.3539 0.353237L 17.6461 -0.353237ZM 15.075 2.43023L 4.05 2.43023L 4.05 3.43023L 15.075 3.43023L 15.075 2.43023ZM 4.34309 2.52514L 0.293089 -0.405091L -0.293089 0.405091L 3.75691 3.33532L 4.34309 2.52514Z"/>
<path id="path2_fill" d="M 0 13.6744L 6.32432 0L 4.91892 13.6744L 0 13.6744Z"/>
<path id="path3_stroke" d="M 6.32432 0L 6.8217 0.0511189L 5.87051 -0.209886L 6.32432 0ZM 0 13.6744L -0.453815 13.4645L -0.782132 14.1744L 0 14.1744L 0 13.6744ZM 4.91892 13.6744L 4.91892 14.1744L 5.37016 14.1744L 5.4163 13.7255L 4.91892 13.6744ZM 5.87051 -0.209886L -0.453815 13.4645L 0.453815 13.8843L 6.77814 0.209886L 5.87051 -0.209886ZM 0 14.1744L 4.91892 14.1744L 4.91892 13.1744L 0 13.1744L 0 14.1744ZM 5.4163 13.7255L 6.8217 0.0511189L 5.82694 -0.0511189L 4.42154 13.6233L 5.4163 13.7255Z"/>
<path id="path4_stroke" d="M -0.5 0L -0.5 17.8256L 0.5 17.8256L 0.5 0L -0.5 0Z"/>
<path id="path5_fill" d="M 0 11.2326C 1.05405 11.1512 2.52973 8.7907 0 0L 3.64865 11.2326L 0 11.2326Z"/>
<path id="path6_stroke" d="M 0 0L 0.475541 -0.154469L -0.4805 0.138275L 0 0ZM 0 11.2326L -0.0384959 10.734L 0 11.7326L 0 11.2326ZM 3.64865 11.2326L 3.64865 11.7326L 4.33678 11.7326L 4.12419 11.0781L 3.64865 11.2326ZM -0.4805 0.138275C 0.777194 4.50871 1.02105 7.22362 0.846839 8.8283C 0.759804 9.63002 0.571897 10.1211 0.38456 10.4017C 0.200442 10.6776 0.0359867 10.7283 -0.0384959 10.734L 0.0384959 11.7311C 0.49104 11.6961 0.906315 11.4213 1.21628 10.9569C 1.52304 10.4974 1.74357 9.83365 1.841 8.93623C 2.03571 7.14266 1.75254 4.28199 0.4805 -0.138275L -0.4805 0.138275ZM 0 11.7326L 3.64865 11.7326L 3.64865 10.7326L 0 10.7326L 0 11.7326ZM 4.12419 11.0781L 0.475541 -0.154469L -0.475541 0.154469L 3.17311 11.387L 4.12419 11.0781Z"/>
<path id="path7_stroke" d="M 0 0.5L 1.45946 0.5L 1.45946 -0.5L 0 -0.5L 0 0.5Z"/>
</defs>
</svg>
