<svg width="22" height="9" viewBox="0 0 22 9" version="1.1" xmlns="http://www.w3.org/2000/svg" xmlns:xlink="http://www.w3.org/1999/xlink">
<title>Small-motorboat</title>
<desc>Created using Figma</desc>
<g id="Canvas" transform="translate(41 171)">
<g id="Small-motorboat">
<g id="Vector 2">
<use xlink:href="#path0_fill" transform="translate(-39 -170)" fill="#FFEDED"/>
<use xlink:href="#path1_stroke" transform="translate(-39 -170)"/>
</g>
<g id="Vector 3">
<use xlink:href="#path2_fill" transform="matrix(0.894367 0.447333 -0.390948 0.920413 -23.6479 -170)" fill="#2E2E2E"/>
<use xlink:href="#path3_stroke" transform="matrix(0.894367 0.447333 -0.390948 0.920413 -23.6479 -170)"/>
</g>
<g id="Vector 4">
<use xlink:href="#path4_stroke" transform="matrix(0.894367 0.447333 -0.390948 0.920413 -23.9185 -167.969)"/>
</g>
<g id="Vector 5">
<use xlink:href="#path5_stroke" transform="translate(-39 -170)"/>
</g>
<g id="Vector 6">
<use xlink:href="#path6_stroke" transform="translate(-24.75 -165.5)"/>
</g>
<g id="Vector 7">
<use xlink:href="#path7_stroke" transform="translate(-24.5 -166)"/>
</g>
<g id="Vector 8">
<use xlink:href="#path8_stroke" transform="translate(-23.75 -166.5)"/>
</g>
<g id="Vector 9">
<use xlink:href="#path9_stroke" transform="translate(-24.75 -167.25)"/>
</g>
<g id="Vector 10">
<use xlink:href="#path10_stroke" transform="translate(-24.75 -166.25)"/>
</g>
</g>
</g>
<defs>
<path id="path0_fill" d="M 3.4898 4.15562C 1.9988 3.77095 0.465936 0.721252 0 0L 15.0882 2.98685L 13.5486 5.71397C 11.0326 5.87425 4.98079 4.54028 3.4898 4.15562Z"/>
<path id="path1_stroke" d="M 0 0L 0.0970952 -0.490482L -1.0601 -0.719559L -0.419986 0.271315L 0 0ZM 13.5486 5.71397L 13.5804 6.21296L 13.8508 6.19573L 13.984 5.95978L 13.5486 5.71397ZM 15.0882 2.98685L 15.5236 3.23266L 15.8635 2.63062L 15.1853 2.49637L 15.0882 2.98685ZM -0.419986 0.271315C -0.310407 0.440939 -0.141465 0.742498 0.101758 1.15394C 0.336812 1.55156 0.62598 2.02466 0.950322 2.48995C 1.27333 2.95332 1.63979 3.42147 2.03216 3.80363C 2.41741 4.17885 2.86826 4.51163 3.36489 4.63976L 3.6147 3.67147C 3.36584 3.60726 3.06595 3.41458 2.72989 3.08726C 2.40094 2.76688 2.07551 2.35539 1.77068 1.9181C 1.46719 1.48273 1.19259 1.03413 0.962595 0.645059C 0.740767 0.26981 0.543375 -0.0803125 0.419986 -0.271315L -0.419986 0.271315ZM 3.36489 4.63976C 4.1237 4.83553 6.02167 5.26777 8.04646 5.63128C 10.053 5.99151 12.2529 6.29753 13.5804 6.21296L 13.5168 5.21498C 12.3283 5.29069 10.2443 5.00986 8.22316 4.64702C 6.2203 4.28744 4.34689 3.86037 3.6147 3.67147L 3.36489 4.63976ZM 13.984 5.95978L 15.5236 3.23266L 14.6528 2.74104L 13.1132 5.46816L 13.984 5.95978ZM 15.1853 2.49637L 0.0970952 -0.490482L -0.0970952 0.490482L 14.9911 3.47733L 15.1853 2.49637Z"/>
<path id="path2_fill" d="M 0 0.510147C 0.100391 0.374108 0.692698 0.0816235 2.2588 0C 3.01173 0 4.21642 0.816235 4.06584 1.42841C 3.94537 1.91815 2.81095 2.34668 2.2588 2.24465C 1.50587 2.17663 0 1.97937 0 1.7345L 0 0.510147Z"/>
<path id="path3_stroke" d="M 2.2588 0L 2.2588 -0.5L 2.24578 -0.5L 2.23277 -0.499322L 2.2588 0ZM 0 0.510147L -0.402314 0.213257L -0.5 0.345631L -0.5 0.510147L 0 0.510147ZM 2.2588 2.24465L 2.34965 1.75297L 2.32686 1.74876L 2.30378 1.74667L 2.2588 2.24465ZM 4.06584 1.42841L 4.55136 1.54784L 4.06584 1.42841ZM 2.23277 -0.499322C 1.42446 -0.457194 0.846164 -0.359765 0.444267 -0.246624C 0.243586 -0.19013 0.0790207 -0.127528 -0.051455 -0.0612259C -0.166229 -0.0029025 -0.306867 0.083918 -0.402314 0.213257L 0.402314 0.807037C 0.357063 0.868356 0.328109 0.867602 0.401569 0.830272C 0.459326 0.800922 0.559542 0.759794 0.71525 0.71596C 1.02613 0.628442 1.52704 0.538817 2.28482 0.499322L 2.23277 -0.499322ZM -0.5 0.510147C -0.5 0.510413 -0.5 0.510681 -0.5 0.510952C -0.5 0.511223 -0.5 0.511497 -0.5 0.511773C -0.5 0.51205 -0.5 0.512329 -0.5 0.512611C -0.5 0.512893 -0.5 0.513177 -0.5 0.513464C -0.5 0.513751 -0.5 0.514041 -0.5 0.514334C -0.5 0.514626 -0.5 0.514921 -0.5 0.515219C -0.5 0.515517 -0.5 0.515817 -0.5 0.51612C -0.5 0.516423 -0.5 0.516729 -0.5 0.517037C -0.5 0.517345 -0.5 0.517656 -0.5 0.51797C -0.5 0.518283 -0.5 0.518599 -0.5 0.518918C -0.5 0.519237 -0.5 0.519558 -0.5 0.519882C -0.5 0.520206 -0.5 0.520532 -0.5 0.520861C -0.5 0.52119 -0.5 0.521522 -0.5 0.521856C -0.5 0.52219 -0.5 0.522527 -0.5 0.522866C -0.5 0.523206 -0.5 0.523548 -0.5 0.523892C -0.5 0.524237 -0.5 0.524584 -0.5 0.524933C -0.5 0.525283 -0.5 0.525635 -0.5 0.52599C -0.5 0.526344 -0.5 0.526701 -0.5 0.527061C -0.5 0.527421 -0.5 0.527783 -0.5 0.528148C -0.5 0.528512 -0.5 0.52888 -0.5 0.529249C -0.5 0.529619 -0.5 0.529991 -0.5 0.530366C -0.5 0.530741 -0.5 0.531118 -0.5 0.531498C -0.5 0.531878 -0.5 0.53226 -0.5 0.532645C -0.5 0.533029 -0.5 0.533416 -0.5 0.533806C -0.5 0.534196 -0.5 0.534588 -0.5 0.534982C -0.5 0.535377 -0.5 0.535774 -0.5 0.536173C -0.5 0.536573 -0.5 0.536975 -0.5 0.537379C -0.5 0.537783 -0.5 0.53819 -0.5 0.538599C -0.5 0.539008 -0.5 0.53942 -0.5 0.539834C -0.5 0.540248 -0.5 0.540665 -0.5 0.541083C -0.5 0.541502 -0.5 0.541924 -0.5 0.542347C -0.5 0.542771 -0.5 0.543197 -0.5 0.543625C -0.5 0.544054 -0.5 0.544485 -0.5 0.544918C -0.5 0.545351 -0.5 0.545787 -0.5 0.546225C -0.5 0.546663 -0.5 0.547103 -0.5 0.547546C -0.5 0.547988 -0.5 0.548433 -0.5 0.548881C -0.5 0.549328 -0.5 0.549778 -0.5 0.55023C -0.5 0.550682 -0.5 0.551136 -0.5 0.551593C -0.5 0.55205 -0.5 0.552509 -0.5 0.55297C -0.5 0.553432 -0.5 0.553895 -0.5 0.554361C -0.5 0.554827 -0.5 0.555296 -0.5 0.555766C -0.5 0.556237 -0.5 0.55671 -0.5 0.557185C -0.5 0.55766 -0.5 0.558138 -0.5 0.558618C -0.5 0.559097 -0.5 0.559579 -0.5 0.560064C -0.5 0.560548 -0.5 0.561035 -0.5 0.561524C -0.5 0.562012 -0.5 0.562504 -0.5 0.562997C -0.5 0.56349 -0.5 0.563986 -0.5 0.564484C -0.5 0.564982 -0.5 0.565482 -0.5 0.565984C -0.5 0.566486 -0.5 0.566991 -0.5 0.567498C -0.5 0.568005 -0.5 0.568514 -0.5 0.569025C -0.5 0.569536 -0.5 0.57005 -0.5 0.570565C -0.5 0.571081 -0.5 0.571599 -0.5 0.572119C -0.5 0.572639 -0.5 0.573161 -0.5 0.573685C -0.5 0.57421 -0.5 0.574736 -0.5 0.575265C -0.5 0.575794 -0.5 0.576325 -0.5 0.576858C -0.5 0.577391 -0.5 0.577926 -0.5 0.578464C -0.5 0.579001 -0.5 0.579541 -0.5 0.580083C -0.5 0.580624 -0.5 0.581168 -0.5 0.581714C -0.5 0.58226 -0.5 0.582808 -0.5 0.583359C -0.5 0.583909 -0.5 0.584461 -0.5 0.585016C -0.5 0.58557 -0.5 0.586127 -0.5 0.586685C -0.5 0.587244 -0.5 0.587805 -0.5 0.588368C -0.5 0.588931 -0.5 0.589496 -0.5 0.590063C -0.5 0.59063 -0.5 0.591199 -0.5 0.59177C -0.5 0.592342 -0.5 0.592915 -0.5 0.59349C -0.5 0.594066 -0.5 0.594643 -0.5 0.595223C -0.5 0.595802 -0.5 0.596384 -0.5 0.596968C -0.5 0.597551 -0.5 0.598137 -0.5 0.598725C -0.5 0.599312 -0.5 0.599902 -0.5 0.600494C -0.5 0.601086 -0.5 0.601679 -0.5 0.602275C -0.5 0.602871 -0.5 0.603469 -0.5 0.604069C -0.5 0.604669 -0.5 0.60527 -0.5 0.605874C -0.5 0.606478 -0.5 0.607084 -0.5 0.607692C -0.5 0.6083 -0.5 0.608909 -0.5 0.609521C -0.5 0.610133 -0.5 0.610747 -0.5 0.611363C -0.5 0.611978 -0.5 0.612596 -0.5 0.613216C -0.5 0.613835 -0.5 0.614457 -0.5 0.615081C -0.5 0.615704 -0.5 0.61633 -0.5 0.616957C -0.5 0.617585 -0.5 0.618214 -0.5 0.618845C -0.5 0.619477 -0.5 0.62011 -0.5 0.620745C -0.5 0.62138 -0.5 0.622018 -0.5 0.622657C -0.5 0.623296 -0.5 0.623937 -0.5 0.624579C -0.5 0.625222 -0.5 0.625867 -0.5 0.626514C -0.5 0.62716 -0.5 0.627809 -0.5 0.628459C -0.5 0.62911 -0.5 0.629762 -0.5 0.630416C -0.5 0.63107 -0.5 0.631726 -0.5 0.632384C -0.5 0.633042 -0.5 0.633702 -0.5 0.634363C -0.5 0.635025 -0.5 0.635688 -0.5 0.636354C -0.5 0.637019 -0.5 0.637686 -0.5 0.638355C -0.5 0.639024 -0.5 0.639695 -0.5 0.640367C -0.5 0.64104 -0.5 0.641714 -0.5 0.642391C -0.5 0.643067 -0.5 0.643745 -0.5 0.644425C -0.5 0.645105 -0.5 0.645786 -0.5 0.64647C -0.5 0.647153 -0.5 0.647839 -0.5 0.648526C -0.5 0.649213 -0.5 0.649902 -0.5 0.650592C -0.5 0.651283 -0.5 0.651975 -0.5 0.652669C -0.5 0.653363 -0.5 0.654059 -0.5 0.654757C -0.5 0.655455 -0.5 0.656154 -0.5 0.656855C -0.5 0.657556 -0.5 0.658259 -0.5 0.658964C -0.5 0.659669 -0.5 0.660375 -0.5 0.661083C -0.5 0.661791 -0.5 0.662501 -0.5 0.663213C -0.5 0.663924 -0.5 0.664637 -0.5 0.665352C -0.5 0.666067 -0.5 0.666784 -0.5 0.667502C -0.5 0.668221 -0.5 0.668941 -0.5 0.669663C -0.5 0.670384 -0.5 0.671108 -0.5 0.671833C -0.5 0.672558 -0.5 0.673285 -0.5 0.674013C -0.5 0.674742 -0.5 0.675472 -0.5 0.676204C -0.5 0.676935 -0.5 0.677669 -0.5 0.678404C -0.5 0.679139 -0.5 0.679876 -0.5 0.680614C -0.5 0.681352 -0.5 0.682093 -0.5 0.682834C -0.5 0.683576 -0.5 0.684319 -0.5 0.685064C -0.5 0.685809 -0.5 0.686555 -0.5 0.687303C -0.5 0.688052 -0.5 0.688801 -0.5 0.689553C -0.5 0.690304 -0.5 0.691057 -0.5 0.691811C -0.5 0.692566 -0.5 0.693322 -0.5 0.69408C -0.5 0.694837 -0.5 0.695597 -0.5 0.696357C -0.5 0.697118 -0.5 0.697881 -0.5 0.698645C -0.5 0.699409 -0.5 0.700174 -0.5 0.700941C -0.5 0.701708 -0.5 0.702477 -0.5 0.703247C -0.5 0.704017 -0.5 0.704789 -0.5 0.705562C -0.5 0.706335 -0.5 0.70711 -0.5 0.707886C -0.5 0.708663 -0.5 0.709441 -0.5 0.71022C -0.5 0.710999 -0.5 0.71178 -0.5 0.712562C -0.5 0.713345 -0.5 0.714128 -0.5 0.714914C -0.5 0.715699 -0.5 0.716486 -0.5 0.717274C -0.5 0.718063 -0.5 0.718852 -0.5 0.719644C -0.5 0.720435 -0.5 0.721228 -0.5 0.722022C -0.5 0.722816 -0.5 0.723612 -0.5 0.724409C -0.5 0.725206 -0.5 0.726004 -0.5 0.726804C -0.5 0.727604 -0.5 0.728406 -0.5 0.729209C -0.5 0.730012 -0.5 0.730816 -0.5 0.731622C -0.5 0.732427 -0.5 0.733235 -0.5 0.734043C -0.5 0.734852 -0.5 0.735662 -0.5 0.736473C -0.5 0.737284 -0.5 0.738097 -0.5 0.738911C -0.5 0.739726 -0.5 0.740541 -0.5 0.741358C -0.5 0.742175 -0.5 0.742993 -0.5 0.743813C -0.5 0.744633 -0.5 0.745454 -0.5 0.746276C -0.5 0.747099 -0.5 0.747923 -0.5 0.748748C -0.5 0.749573 -0.5 0.7504 -0.5 0.751228C -0.5 0.752056 -0.5 0.752885 -0.5 0.753715C -0.5 0.754546 -0.5 0.755378 -0.5 0.756211C -0.5 0.757044 -0.5 0.757879 -0.5 0.758715C -0.5 0.759551 -0.5 0.760388 -0.5 0.761226C -0.5 0.762065 -0.5 0.762905 -0.5 0.763746C -0.5 0.764587 -0.5 0.765429 -0.5 0.766273C -0.5 0.767117 -0.5 0.767962 -0.5 0.768808C -0.5 0.769654 -0.5 0.770502 -0.5 0.771351C -0.5 0.772199 -0.5 0.773049 -0.5 0.773901C -0.5 0.774752 -0.5 0.775605 -0.5 0.776459C -0.5 0.777312 -0.5 0.778167 -0.5 0.779024C -0.5 0.77988 -0.5 0.780738 -0.5 0.781597C -0.5 0.782455 -0.5 0.783315 -0.5 0.784177C -0.5 0.785038 -0.5 0.7859 -0.5 0.786764C -0.5 0.787628 -0.5 0.788493 -0.5 0.789359C -0.5 0.790225 -0.5 0.791092 -0.5 0.79196C -0.5 0.792829 -0.5 0.793699 -0.5 0.794569C -0.5 0.79544 -0.5 0.796312 -0.5 0.797186C -0.5 0.798059 -0.5 0.798933 -0.5 0.799809C -0.5 0.800684 -0.5 0.801561 -0.5 0.802439C -0.5 0.803317 -0.5 0.804196 -0.5 0.805076C -0.5 0.805956 -0.5 0.806837 -0.5 0.80772C -0.5 0.808602 -0.5 0.809485 -0.5 0.81037C -0.5 0.811255 -0.5 0.812141 -0.5 0.813028C -0.5 0.813914 -0.5 0.814802 -0.5 0.815692C -0.5 0.816581 -0.5 0.817471 -0.5 0.818362C -0.5 0.819253 -0.5 0.820146 -0.5 0.821039C -0.5 0.821933 -0.5 0.822827 -0.5 0.823723C -0.5 0.824619 -0.5 0.825515 -0.5 0.826413C -0.5 0.827311 -0.5 0.82821 -0.5 0.82911C -0.5 0.83001 -0.5 0.830911 -0.5 0.831813C -0.5 0.832715 -0.5 0.833618 -0.5 0.834522C -0.5 0.835426 -0.5 0.836331 -0.5 0.837237C -0.5 0.838143 -0.5 0.83905 -0.5 0.839958C -0.5 0.840867 -0.5 0.841776 -0.5 0.842686C -0.5 0.843596 -0.5 0.844507 -0.5 0.84542C -0.5 0.846332 -0.5 0.847245 -0.5 0.848159C -0.5 0.849073 -0.5 0.849989 -0.5 0.850905C -0.5 0.851821 -0.5 0.852738 -0.5 0.853656C -0.5 0.854574 -0.5 0.855493 -0.5 0.856413C -0.5 0.857333 -0.5 0.858254 -0.5 0.859176C -0.5 0.860098 -0.5 0.861021 -0.5 0.861945C -0.5 0.862868 -0.5 0.863793 -0.5 0.864719C -0.5 0.865644 -0.5 0.866571 -0.5 0.867499C -0.5 0.868426 -0.5 0.869354 -0.5 0.870284C -0.5 0.871213 -0.5 0.872143 -0.5 0.873075C -0.5 0.874006 -0.5 0.874938 -0.5 0.875871C -0.5 0.876804 -0.5 0.877737 -0.5 0.878672C -0.5 0.879607 -0.5 0.880542 -0.5 0.881479C -0.5 0.882415 -0.5 0.883353 -0.5 0.884291C -0.5 0.885229 -0.5 0.886168 -0.5 0.887108C -0.5 0.888048 -0.5 0.888988 -0.5 0.88993C -0.5 0.890872 -0.5 0.891814 -0.5 0.892757C -0.5 0.8937 -0.5 0.894644 -0.5 0.895589C -0.5 0.896534 -0.5 0.89748 -0.5 0.898427C -0.5 0.899373 -0.5 0.90032 -0.5 0.901269C -0.5 0.902217 -0.5 0.903166 -0.5 0.904115C -0.5 0.905065 -0.5 0.906016 -0.5 0.906967C -0.5 0.907918 -0.5 0.90887 -0.5 0.909823C -0.5 0.910776 -0.5 0.91173 -0.5 0.912684C -0.5 0.913638 -0.5 0.914594 -0.5 0.915549C -0.5 0.916505 -0.5 0.917462 -0.5 0.918419C -0.5 0.919377 -0.5 0.920335 -0.5 0.921294C -0.5 0.922253 -0.5 0.923212 -0.5 0.924173C -0.5 0.925133 -0.5 0.926094 -0.5 0.927056C -0.5 0.928017 -0.5 0.92898 -0.5 0.929943C -0.5 0.930906 -0.5 0.93187 -0.5 0.932835C -0.5 0.933799 -0.5 0.934765 -0.5 0.935731C -0.5 0.936697 -0.5 0.937663 -0.5 0.938631C -0.5 0.939598 -0.5 0.940566 -0.5 0.941535C -0.5 0.942503 -0.5 0.943473 -0.5 0.944443C -0.5 0.945412 -0.5 0.946383 -0.5 0.947354C -0.5 0.948326 -0.5 0.949298 -0.5 0.95027C -0.5 0.951243 -0.5 0.952216 -0.5 0.95319C -0.5 0.954164 -0.5 0.955138 -0.5 0.956113C -0.5 0.957088 -0.5 0.958064 -0.5 0.95904C -0.5 0.960016 -0.5 0.960993 -0.5 0.961971C -0.5 0.962948 -0.5 0.963926 -0.5 0.964905C -0.5 0.965884 -0.5 0.966863 -0.5 0.967843C -0.5 0.968823 -0.5 0.969803 -0.5 0.970784C -0.5 0.971765 -0.5 0.972747 -0.5 0.973729C -0.5 0.974711 -0.5 0.975693 -0.5 0.976677C -0.5 0.97766 -0.5 0.978644 -0.5 0.979628C -0.5 0.980612 -0.5 0.981597 -0.5 0.982583C -0.5 0.983568 -0.5 0.984554 -0.5 0.98554C -0.5 0.986527 -0.5 0.987514 -0.5 0.988501C -0.5 0.989488 -0.5 0.990476 -0.5 0.991465C -0.5 0.992453 -0.5 0.993442 -0.5 0.994432C -0.5 0.995421 -0.5 0.996411 -0.5 0.997401C -0.5 0.998392 -0.5 0.999383 -0.5 1.00037C -0.5 1.00137 -0.5 1.00236 -0.5 1.00335C -0.5 1.00434 -0.5 1.00533 -0.5 1.00633C -0.5 1.00732 -0.5 1.00831 -0.5 1.00931C -0.5 1.0103 -0.5 1.0113 -0.5 1.01229C -0.5 1.01329 -0.5 1.01428 -0.5 1.01528C -0.5 1.01627 -0.5 1.01727 -0.5 1.01827C -0.5 1.01926 -0.5 1.02026 -0.5 1.02126C -0.5 1.02226 -0.5 1.02325 -0.5 1.02425C -0.5 1.02525 -0.5 1.02625 -0.5 1.02725C -0.5 1.02825 -0.5 1.02925 -0.5 1.03025C -0.5 1.03125 -0.5 1.03225 -0.5 1.03325C -0.5 1.03425 -0.5 1.03525 -0.5 1.03625C -0.5 1.03725 -0.5 1.03825 -0.5 1.03925C -0.5 1.04026 -0.5 1.04126 -0.5 1.04226C -0.5 1.04326 -0.5 1.04427 -0.5 1.04527C -0.5 1.04627 -0.5 1.04728 -0.5 1.04828C -0.5 1.04928 -0.5 1.05029 -0.5 1.05129C -0.5 1.0523 -0.5 1.0533 -0.5 1.05431C -0.5 1.05531 -0.5 1.05632 -0.5 1.05732C -0.5 1.05833 -0.5 1.05934 -0.5 1.06034C -0.5 1.06135 -0.5 1.06236 -0.5 1.06336C -0.5 1.06437 -0.5 1.06538 -0.5 1.06638C -0.5 1.06739 -0.5 1.0684 -0.5 1.06941C -0.5 1.07041 -0.5 1.07142 -0.5 1.07243C -0.5 1.07344 -0.5 1.07445 -0.5 1.07546C -0.5 1.07646 -0.5 1.07747 -0.5 1.07848C -0.5 1.07949 -0.5 1.0805 -0.5 1.08151C -0.5 1.08252 -0.5 1.08353 -0.5 1.08454C -0.5 1.08555 -0.5 1.08656 -0.5 1.08757C -0.5 1.08858 -0.5 1.08959 -0.5 1.0906C -0.5 1.09161 -0.5 1.09263 -0.5 1.09364C -0.5 1.09465 -0.5 1.09566 -0.5 1.09667C -0.5 1.09768 -0.5 1.09869 -0.5 1.09971C -0.5 1.10072 -0.5 1.10173 -0.5 1.10274C -0.5 1.10375 -0.5 1.10477 -0.5 1.10578C -0.5 1.10679 -0.5 1.1078 -0.5 1.10882C -0.5 1.10983 -0.5 1.11084 -0.5 1.11185C -0.5 1.11287 -0.5 1.11388 -0.5 1.11489C -0.5 1.11591 -0.5 1.11692 -0.5 1.11793C -0.5 1.11895 -0.5 1.11996 -0.5 1.12097C -0.5 1.12199 -0.5 1.123 -0.5 1.12401C -0.5 1.12503 -0.5 1.12604 -0.5 1.12705C -0.5 1.12807 -0.5 1.12908 -0.5 1.1301C -0.5 1.13111 -0.5 1.13212 -0.5 1.13314C -0.5 1.13415 -0.5 1.13516 -0.5 1.13618C -0.5 1.13719 -0.5 1.13821 -0.5 1.13922C -0.5 1.14023 -0.5 1.14125 -0.5 1.14226C -0.5 1.14328 -0.5 1.14429 -0.5 1.14531C -0.5 1.14632 -0.5 1.14733 -0.5 1.14835C -0.5 1.14936 -0.5 1.15038 -0.5 1.15139C -0.5 1.1524 -0.5 1.15342 -0.5 1.15443C -0.5 1.15545 -0.5 1.15646 -0.5 1.15747C -0.5 1.15849 -0.5 1.1595 -0.5 1.16052C -0.5 1.16153 -0.5 1.16254 -0.5 1.16356C -0.5 1.16457 -0.5 1.16558 -0.5 1.1666C -0.5 1.16761 -0.5 1.16863 -0.5 1.16964C -0.5 1.17065 -0.5 1.17167 -0.5 1.17268C -0.5 1.17369 -0.5 1.17471 -0.5 1.17572C -0.5 1.17673 -0.5 1.17775 -0.5 1.17876C -0.5 1.17977 -0.5 1.18078 -0.5 1.1818C -0.5 1.18281 -0.5 1.18382 -0.5 1.18483C -0.5 1.18585 -0.5 1.18686 -0.5 1.18787C -0.5 1.18888 -0.5 1.1899 -0.5 1.19091C -0.5 1.19192 -0.5 1.19293 -0.5 1.19394C -0.5 1.19496 -0.5 1.19597 -0.5 1.19698C -0.5 1.19799 -0.5 1.199 -0.5 1.20001C -0.5 1.20102 -0.5 1.20203 -0.5 1.20305C -0.5 1.20406 -0.5 1.20507 -0.5 1.20608C -0.5 1.20709 -0.5 1.2081 -0.5 1.20911C -0.5 1.21012 -0.5 1.21113 -0.5 1.21214C -0.5 1.21315 -0.5 1.21416 -0.5 1.21516C -0.5 1.21617 -0.5 1.21718 -0.5 1.21819C -0.5 1.2192 -0.5 1.22021 -0.5 1.22122C -0.5 1.22222 -0.5 1.22323 -0.5 1.22424C -0.5 1.22525 -0.5 1.22625 -0.5 1.22726C -0.5 1.22827 -0.5 1.22928 -0.5 1.23028C -0.5 1.23129 -0.5 1.2323 -0.5 1.2333C -0.5 1.23431 -0.5 1.23531 -0.5 1.23632C -0.5 1.23732 -0.5 1.23833 -0.5 1.23934C -0.5 1.24034 -0.5 1.24134 -0.5 1.24235C -0.5 1.24335 -0.5 1.24436 -0.5 1.24536C -0.5 1.24636 -0.5 1.24737 -0.5 1.24837C -0.5 1.24937 -0.5 1.25038 -0.5 1.25138C -0.5 1.25238 -0.5 1.25338 -0.5 1.25439C -0.5 1.25539 -0.5 1.25639 -0.5 1.25739C -0.5 1.25839 -0.5 1.25939 -0.5 1.26039C -0.5 1.26139 -0.5 1.26239 -0.5 1.26339C -0.5 1.26439 -0.5 1.26539 -0.5 1.26639C -0.5 1.26739 -0.5 1.26839 -0.5 1.26938C -0.5 1.27038 -0.5 1.27138 -0.5 1.27238C -0.5 1.27337 -0.5 1.27437 -0.5 1.27537C -0.5 1.27636 -0.5 1.27736 -0.5 1.27836C -0.5 1.27935 -0.5 1.28035 -0.5 1.28134C -0.5 1.28234 -0.5 1.28333 -0.5 1.28432C -0.5 1.28532 -0.5 1.28631 -0.5 1.2873C -0.5 1.2883 -0.5 1.28929 -0.5 1.29028C -0.5 1.29127 -0.5 1.29226 -0.5 1.29326C -0.5 1.29425 -0.5 1.29524 -0.5 1.29623C -0.5 1.29722 -0.5 1.29821 -0.5 1.2992C -0.5 1.30018 -0.5 1.30117 -0.5 1.30216C -0.5 1.30315 -0.5 1.30414 -0.5 1.30512C -0.5 1.30611 -0.5 1.3071 -0.5 1.30808C -0.5 1.30907 -0.5 1.31006 -0.5 1.31104C -0.5 1.31203 -0.5 1.31301 -0.5 1.31399C -0.5 1.31498 -0.5 1.31596 -0.5 1.31694C -0.5 1.31793 -0.5 1.31891 -0.5 1.31989C -0.5 1.32087 -0.5 1.32185 -0.5 1.32283C -0.5 1.32382 -0.5 1.3248 -0.5 1.32578C -0.5 1.32675 -0.5 1.32773 -0.5 1.32871C -0.5 1.32969 -0.5 1.33067 -0.5 1.33164C -0.5 1.33262 -0.5 1.3336 -0.5 1.33457C -0.5 1.33555 -0.5 1.33653 -0.5 1.3375C -0.5 1.33847 -0.5 1.33945 -0.5 1.34042C -0.5 1.3414 -0.5 1.34237 -0.5 1.34334C -0.5 1.34431 -0.5 1.34528 -0.5 1.34625C -0.5 1.34723 -0.5 1.3482 -0.5 1.34917C -0.5 1.35014 -0.5 1.3511 -0.5 1.35207C -0.5 1.35304 -0.5 1.35401 -0.5 1.35497C -0.5 1.35594 -0.5 1.35691 -0.5 1.35787C -0.5 1.35884 -0.5 1.3598 -0.5 1.36077C -0.5 1.36173 -0.5 1.3627 -0.5 1.36366C -0.5 1.36462 -0.5 1.36558 -0.5 1.36654C -0.5 1.36751 -0.5 1.36847 -0.5 1.36943C -0.5 1.37039 -0.5 1.37134 -0.5 1.3723C -0.5 1.37326 -0.5 1.37422 -0.5 1.37518C -0.5 1.37613 -0.5 1.37709 -0.5 1.37804C -0.5 1.379 -0.5 1.37995 -0.5 1.38091C -0.5 1.38186 -0.5 1.38282 -0.5 1.38377C -0.5 1.38472 -0.5 1.38567 -0.5 1.38662C -0.5 1.38757 -0.5 1.38852 -0.5 1.38947C -0.5 1.39042 -0.5 1.39137 -0.5 1.39232C -0.5 1.39327 -0.5 1.39421 -0.5 1.39516C -0.5 1.3961 -0.5 1.39705 -0.5 1.39799C -0.5 1.39894 -0.5 1.39988 -0.5 1.40082C -0.5 1.40177 -0.5 1.40271 -0.5 1.40365C -0.5 1.40459 -0.5 1.40553 -0.5 1.40647C -0.5 1.40741 -0.5 1.40835 -0.5 1.40929C -0.5 1.41022 -0.5 1.41116 -0.5 1.4121C -0.5 1.41303 -0.5 1.41397 -0.5 1.4149C -0.5 1.41583 -0.5 1.41677 -0.5 1.4177C -0.5 1.41863 -0.5 1.41956 -0.5 1.42049C -0.5 1.42143 -0.5 1.42235 -0.5 1.42328C -0.5 1.42421 -0.5 1.42514 -0.5 1.42607C -0.5 1.42699 -0.5 1.42792 -0.5 1.42884C -0.5 1.42977 -0.5 1.43069 -0.5 1.43162C -0.5 1.43254 -0.5 1.43346 -0.5 1.43438C -0.5 1.43531 -0.5 1.43623 -0.5 1.43714C -0.5 1.43806 -0.5 1.43898 -0.5 1.4399C -0.5 1.44082 -0.5 1.44173 -0.5 1.44265C -0.5 1.44356 -0.5 1.44448 -0.5 1.44539C -0.5 1.44631 -0.5 1.44722 -0.5 1.44813C -0.5 1.44904 -0.5 1.44995 -0.5 1.45086C -0.5 1.45177 -0.5 1.45268 -0.5 1.45359C -0.5 1.4545 -0.5 1.4554 -0.5 1.45631C -0.5 1.45721 -0.5 1.45812 -0.5 1.45902C -0.5 1.45992 -0.5 1.46083 -0.5 1.46173C -0.5 1.46263 -0.5 1.46353 -0.5 1.46443C -0.5 1.46533 -0.5 1.46623 -0.5 1.46712C -0.5 1.46802 -0.5 1.46892 -0.5 1.46981C -0.5 1.47071 -0.5 1.4716 -0.5 1.47249C -0.5 1.47338 -0.5 1.47428 -0.5 1.47517C -0.5 1.47606 -0.5 1.47695 -0.5 1.47784C -0.5 1.47872 -0.5 1.47961 -0.5 1.4805C -0.5 1.48138 -0.5 1.48227 -0.5 1.48315C -0.5 1.48404 -0.5 1.48492 -0.5 1.4858C -0.5 1.48668 -0.5 1.48756 -0.5 1.48844C -0.5 1.48932 -0.5 1.4902 -0.5 1.49108C -0.5 1.49195 -0.5 1.49283 -0.5 1.4937C -0.5 1.49458 -0.5 1.49545 -0.5 1.49633C -0.5 1.4972 -0.5 1.49807 -0.5 1.49894C -0.5 1.49981 -0.5 1.50068 -0.5 1.50155C -0.5 1.50241 -0.5 1.50328 -0.5 1.50415C -0.5 1.50501 -0.5 1.50587 -0.5 1.50674C -0.5 1.5076 -0.5 1.50846 -0.5 1.50932C -0.5 1.51018 -0.5 1.51104 -0.5 1.5119C -0.5 1.51276 -0.5 1.51361 -0.5 1.51447C -0.5 1.51533 -0.5 1.51618 -0.5 1.51703C -0.5 1.51789 -0.5 1.51874 -0.5 1.51959C -0.5 1.52044 -0.5 1.52129 -0.5 1.52214C -0.5 1.52298 -0.5 1.52383 -0.5 1.52468C -0.5 1.52552 -0.5 1.52637 -0.5 1.52721C -0.5 1.52805 -0.5 1.52889 -0.5 1.52973C -0.5 1.53057 -0.5 1.53141 -0.5 1.53225C -0.5 1.53309 -0.5 1.53392 -0.5 1.53476C -0.5 1.53559 -0.5 1.53643 -0.5 1.53726C -0.5 1.53809 -0.5 1.53892 -0.5 1.53975C -0.5 1.54058 -0.5 1.54141 -0.5 1.54224C -0.5 1.54307 -0.5 1.54389 -0.5 1.54471C -0.5 1.54554 -0.5 1.54636 -0.5 1.54718C -0.5 1.54801 -0.5 1.54883 -0.5 1.54964C -0.5 1.55046 -0.5 1.55128 -0.5 1.5521C -0.5 1.55291 -0.5 1.55373 -0.5 1.55454C -0.5 1.55535 -0.5 1.55617 -0.5 1.55698C -0.5 1.55779 -0.5 1.5586 -0.5 1.5594C -0.5 1.56021 -0.5 1.56102 -0.5 1.56182C -0.5 1.56263 -0.5 1.56343 -0.5 1.56423C -0.5 1.56503 -0.5 1.56583 -0.5 1.56663C -0.5 1.56743 -0.5 1.56823 -0.5 1.56903C -0.5 1.56982 -0.5 1.57062 -0.5 1.57141C -0.5 1.5722 -0.5 1.573 -0.5 1.57379C -0.5 1.57458 -0.5 1.57536 -0.5 1.57615C -0.5 1.57694 -0.5 1.57772 -0.5 1.57851C -0.5 1.57929 -0.5 1.58008 -0.5 1.58086C -0.5 1.58164 -0.5 1.58242 -0.5 1.5832C -0.5 1.58398 -0.5 1.58475 -0.5 1.58553C -0.5 1.5863 -0.5 1.58708 -0.5 1.58785C -0.5 1.58862 -0.5 1.58939 -0.5 1.59016C -0.5 1.59093 -0.5 1.5917 -0.5 1.59246C -0.5 1.59323 -0.5 1.59399 -0.5 1.59476C -0.5 1.59552 -0.5 1.59628 -0.5 1.59704C -0.5 1.5978 -0.5 1.59856 -0.5 1.59932C -0.5 1.60007 -0.5 1.60083 -0.5 1.60158C -0.5 1.60233 -0.5 1.60309 -0.5 1.60384C -0.5 1.60459 -0.5 1.60534 -0.5 1.60608C -0.5 1.60683 -0.5 1.60757 -0.5 1.60832C -0.5 1.60906 -0.5 1.6098 -0.5 1.61055C -0.5 1.61129 -0.5 1.61202 -0.5 1.61276C -0.5 1.6135 -0.5 1.61423 -0.5 1.61497C -0.5 1.6157 -0.5 1.61644 -0.5 1.61717C -0.5 1.6179 -0.5 1.61863 -0.5 1.61935C -0.5 1.62008 -0.5 1.62081 -0.5 1.62153C -0.5 1.62225 -0.5 1.62298 -0.5 1.6237C -0.5 1.62442 -0.5 1.62514 -0.5 1.62585C -0.5 1.62657 -0.5 1.62729 -0.5 1.628C -0.5 1.62871 -0.5 1.62943 -0.5 1.63014C -0.5 1.63085 -0.5 1.63156 -0.5 1.63226C -0.5 1.63297 -0.5 1.63367 -0.5 1.63438C -0.5 1.63508 -0.5 1.63578 -0.5 1.63648C -0.5 1.63718 -0.5 1.63788 -0.5 1.63858C -0.5 1.63927 -0.5 1.63997 -0.5 1.64066C -0.5 1.64136 -0.5 1.64205 -0.5 1.64274C -0.5 1.64343 -0.5 1.64411 -0.5 1.6448C -0.5 1.64548 -0.5 1.64617 -0.5 1.64685C -0.5 1.64753 -0.5 1.64821 -0.5 1.64889C -0.5 1.64957 -0.5 1.65025 -0.5 1.65092C -0.5 1.6516 -0.5 1.65227 -0.5 1.65294C -0.5 1.65361 -0.5 1.65428 -0.5 1.65495C -0.5 1.65562 -0.5 1.65629 -0.5 1.65695C -0.5 1.65761 -0.5 1.65828 -0.5 1.65894C -0.5 1.6596 -0.5 1.66025 -0.5 1.66091C -0.5 1.66157 -0.5 1.66222 -0.5 1.66288C -0.5 1.66353 -0.5 1.66418 -0.5 1.66483C -0.5 1.66548 -0.5 1.66613 -0.5 1.66677C -0.5 1.66742 -0.5 1.66806 -0.5 1.6687C -0.5 1.66934 -0.5 1.66998 -0.5 1.67062C -0.5 1.67126 -0.5 1.67189 -0.5 1.67253C -0.5 1.67316 -0.5 1.67379 -0.5 1.67442C -0.5 1.67505 -0.5 1.67568 -0.5 1.67631C -0.5 1.67693 -0.5 1.67756 -0.5 1.67818C -0.5 1.6788 -0.5 1.67942 -0.5 1.68004C -0.5 1.68066 -0.5 1.68128 -0.5 1.68189C -0.5 1.68251 -0.5 1.68312 -0.5 1.68373C -0.5 1.68434 -0.5 1.68495 -0.5 1.68555C -0.5 1.68616 -0.5 1.68676 -0.5 1.68737C -0.5 1.68797 -0.5 1.68857 -0.5 1.68917C -0.5 1.68977 -0.5 1.69036 -0.5 1.69096C -0.5 1.69155 -0.5 1.69215 -0.5 1.69274C -0.5 1.69333 -0.5 1.69391 -0.5 1.6945C -0.5 1.69509 -0.5 1.69567 -0.5 1.69625C -0.5 1.69684 -0.5 1.69742 -0.5 1.69799C -0.5 1.69857 -0.5 1.69915 -0.5 1.69972C -0.5 1.7003 -0.5 1.70087 -0.5 1.70144C -0.5 1.70201 -0.5 1.70258 -0.5 1.70314C -0.5 1.70371 -0.5 1.70427 -0.5 1.70483C -0.5 1.70539 -0.5 1.70595 -0.5 1.70651C -0.5 1.70707 -0.5 1.70762 -0.5 1.70818C -0.5 1.70873 -0.5 1.70928 -0.5 1.70983C -0.5 1.71038 -0.5 1.71092 -0.5 1.71147C -0.5 1.71201 -0.5 1.71256 -0.5 1.7131C -0.5 1.71364 -0.5 1.71418 -0.5 1.71471C -0.5 1.71525 -0.5 1.71578 -0.5 1.71631C -0.5 1.71684 -0.5 1.71737 -0.5 1.7179C -0.5 1.71843 -0.5 1.71895 -0.5 1.71948C -0.5 1.72 -0.5 1.72052 -0.5 1.72104C -0.5 1.72156 -0.5 1.72207 -0.5 1.72259C -0.5 1.7231 -0.5 1.72361 -0.5 1.72412C -0.5 1.72463 -0.5 1.72514 -0.5 1.72565C -0.5 1.72615 -0.5 1.72665 -0.5 1.72716C -0.5 1.72766 -0.5 1.72816 -0.5 1.72865C -0.5 1.72915 -0.5 1.72964 -0.5 1.73013C -0.5 1.73063 -0.5 1.73112 -0.5 1.7316C -0.5 1.73209 -0.5 1.73258 -0.5 1.73306C -0.5 1.73354 -0.5 1.73402 -0.5 1.7345L 0.5 1.7345C 0.5 1.73402 0.5 1.73354 0.5 1.73306C 0.5 1.73258 0.5 1.73209 0.5 1.7316C 0.5 1.73112 0.5 1.73063 0.5 1.73013C 0.5 1.72964 0.5 1.72915 0.5 1.72865C 0.5 1.72816 0.5 1.72766 0.5 1.72716C 0.5 1.72665 0.5 1.72615 0.5 1.72565C 0.5 1.72514 0.5 1.72463 0.5 1.72412C 0.5 1.72361 0.5 1.7231 0.5 1.72259C 0.5 1.72207 0.5 1.72156 0.5 1.72104C 0.5 1.72052 0.5 1.72 0.5 1.71948C 0.5 1.71895 0.5 1.71843 0.5 1.7179C 0.5 1.71737 0.5 1.71684 0.5 1.71631C 0.5 1.71578 0.5 1.71525 0.5 1.71471C 0.5 1.71418 0.5 1.71364 0.5 1.7131C 0.5 1.71256 0.5 1.71201 0.5 1.71147C 0.5 1.71092 0.5 1.71038 0.5 1.70983C 0.5 1.70928 0.5 1.70873 0.5 1.70818C 0.5 1.70762 0.5 1.70707 0.5 1.70651C 0.5 1.70595 0.5 1.70539 0.5 1.70483C 0.5 1.70427 0.5 1.70371 0.5 1.70314C 0.5 1.70258 0.5 1.70201 0.5 1.70144C 0.5 1.70087 0.5 1.7003 0.5 1.69972C 0.5 1.69915 0.5 1.69857 0.5 1.69799C 0.5 1.69742 0.5 1.69684 0.5 1.69625C 0.5 1.69567 0.5 1.69509 0.5 1.6945C 0.5 1.69391 0.5 1.69333 0.5 1.69274C 0.5 1.69215 0.5 1.69155 0.5 1.69096C 0.5 1.69036 0.5 1.68977 0.5 1.68917C 0.5 1.68857 0.5 1.68797 0.5 1.68737C 0.5 1.68676 0.5 1.68616 0.5 1.68555C 0.5 1.68495 0.5 1.68434 0.5 1.68373C 0.5 1.68312 0.5 1.68251 0.5 1.68189C 0.5 1.68128 0.5 1.68066 0.5 1.68004C 0.5 1.67942 0.5 1.6788 0.5 1.67818C 0.5 1.67756 0.5 1.67693 0.5 1.67631C 0.5 1.67568 0.5 1.67505 0.5 1.67442C 0.5 1.67379 0.5 1.67316 0.5 1.67253C 0.5 1.67189 0.5 1.67126 0.5 1.67062C 0.5 1.66998 0.5 1.66934 0.5 1.6687C 0.5 1.66806 0.5 1.66742 0.5 1.66677C 0.5 1.66613 0.5 1.66548 0.5 1.66483C 0.5 1.66418 0.5 1.66353 0.5 1.66288C 0.5 1.66222 0.5 1.66157 0.5 1.66091C 0.5 1.66025 0.5 1.6596 0.5 1.65894C 0.5 1.65828 0.5 1.65761 0.5 1.65695C 0.5 1.65629 0.5 1.65562 0.5 1.65495C 0.5 1.65428 0.5 1.65361 0.5 1.65294C 0.5 1.65227 0.5 1.6516 0.5 1.65092C 0.5 1.65025 0.5 1.64957 0.5 1.64889C 0.5 1.64821 0.5 1.64753 0.5 1.64685C 0.5 1.64617 0.5 1.64548 0.5 1.6448C 0.5 1.64411 0.5 1.64343 0.5 1.64274C 0.5 1.64205 0.5 1.64136 0.5 1.64066C 0.5 1.63997 0.5 1.63927 0.5 1.63858C 0.5 1.63788 0.5 1.63718 0.5 1.63648C 0.5 1.63578 0.5 1.63508 0.5 1.63438C 0.5 1.63367 0.5 1.63297 0.5 1.63226C 0.5 1.63156 0.5 1.63085 0.5 1.63014C 0.5 1.62943 0.5 1.62871 0.5 1.628C 0.5 1.62729 0.5 1.62657 0.5 1.62585C 0.5 1.62514 0.5 1.62442 0.5 1.6237C 0.5 1.62298 0.5 1.62225 0.5 1.62153C 0.5 1.62081 0.5 1.62008 0.5 1.61935C 0.5 1.61863 0.5 1.6179 0.5 1.61717C 0.5 1.61644 0.5 1.6157 0.5 1.61497C 0.5 1.61423 0.5 1.6135 0.5 1.61276C 0.5 1.61202 0.5 1.61129 0.5 1.61055C 0.5 1.6098 0.5 1.60906 0.5 1.60832C 0.5 1.60757 0.5 1.60683 0.5 1.60608C 0.5 1.60534 0.5 1.60459 0.5 1.60384C 0.5 1.60309 0.5 1.60233 0.5 1.60158C 0.5 1.60083 0.5 1.60007 0.5 1.59932C 0.5 1.59856 0.5 1.5978 0.5 1.59704C 0.5 1.59628 0.5 1.59552 0.5 1.59476C 0.5 1.59399 0.5 1.59323 0.5 1.59246C 0.5 1.5917 0.5 1.59093 0.5 1.59016C 0.5 1.58939 0.5 1.58862 0.5 1.58785C 0.5 1.58708 0.5 1.5863 0.5 1.58553C 0.5 1.58475 0.5 1.58398 0.5 1.5832C 0.5 1.58242 0.5 1.58164 0.5 1.58086C 0.5 1.58008 0.5 1.57929 0.5 1.57851C 0.5 1.57772 0.5 1.57694 0.5 1.57615C 0.5 1.57536 0.5 1.57458 0.5 1.57379C 0.5 1.573 0.5 1.5722 0.5 1.57141C 0.5 1.57062 0.5 1.56982 0.5 1.56903C 0.5 1.56823 0.5 1.56743 0.5 1.56663C 0.5 1.56583 0.5 1.56503 0.5 1.56423C 0.5 1.56343 0.5 1.56263 0.5 1.56182C 0.5 1.56102 0.5 1.56021 0.5 1.5594C 0.5 1.5586 0.5 1.55779 0.5 1.55698C 0.5 1.55617 0.5 1.55535 0.5 1.55454C 0.5 1.55373 0.5 1.55291 0.5 1.5521C 0.5 1.55128 0.5 1.55046 0.5 1.54964C 0.5 1.54883 0.5 1.54801 0.5 1.54718C 0.5 1.54636 0.5 1.54554 0.5 1.54471C 0.5 1.54389 0.5 1.54307 0.5 1.54224C 0.5 1.54141 0.5 1.54058 0.5 1.53975C 0.5 1.53892 0.5 1.53809 0.5 1.53726C 0.5 1.53643 0.5 1.53559 0.5 1.53476C 0.5 1.53392 0.5 1.53309 0.5 1.53225C 0.5 1.53141 0.5 1.53057 0.5 1.52973C 0.5 1.52889 0.5 1.52805 0.5 1.52721C 0.5 1.52637 0.5 1.52552 0.5 1.52468C 0.5 1.52383 0.5 1.52298 0.5 1.52214C 0.5 1.52129 0.5 1.52044 0.5 1.51959C 0.5 1.51874 0.5 1.51789 0.5 1.51703C 0.5 1.51618 0.5 1.51533 0.5 1.51447C 0.5 1.51361 0.5 1.51276 0.5 1.5119C 0.5 1.51104 0.5 1.51018 0.5 1.50932C 0.5 1.50846 0.5 1.5076 0.5 1.50674C 0.5 1.50587 0.5 1.50501 0.5 1.50415C 0.5 1.50328 0.5 1.50241 0.5 1.50155C 0.5 1.50068 0.5 1.49981 0.5 1.49894C 0.5 1.49807 0.5 1.4972 0.5 1.49633C 0.5 1.49545 0.5 1.49458 0.5 1.4937C 0.5 1.49283 0.5 1.49195 0.5 1.49108C 0.5 1.4902 0.5 1.48932 0.5 1.48844C 0.5 1.48756 0.5 1.48668 0.5 1.4858C 0.5 1.48492 0.5 1.48404 0.5 1.48315C 0.5 1.48227 0.5 1.48138 0.5 1.4805C 0.5 1.47961 0.5 1.47872 0.5 1.47784C 0.5 1.47695 0.5 1.47606 0.5 1.47517C 0.5 1.47428 0.5 1.47338 0.5 1.47249C 0.5 1.4716 0.5 1.47071 0.5 1.46981C 0.5 1.46892 0.5 1.46802 0.5 1.46712C 0.5 1.46623 0.5 1.46533 0.5 1.46443C 0.5 1.46353 0.5 1.46263 0.5 1.46173C 0.5 1.46083 0.5 1.45992 0.5 1.45902C 0.5 1.45812 0.5 1.45721 0.5 1.45631C 0.5 1.4554 0.5 1.4545 0.5 1.45359C 0.5 1.45268 0.5 1.45177 0.5 1.45086C 0.5 1.44995 0.5 1.44904 0.5 1.44813C 0.5 1.44722 0.5 1.44631 0.5 1.44539C 0.5 1.44448 0.5 1.44356 0.5 1.44265C 0.5 1.44173 0.5 1.44082 0.5 1.4399C 0.5 1.43898 0.5 1.43806 0.5 1.43714C 0.5 1.43623 0.5 1.43531 0.5 1.43438C 0.5 1.43346 0.5 1.43254 0.5 1.43162C 0.5 1.43069 0.5 1.42977 0.5 1.42884C 0.5 1.42792 0.5 1.42699 0.5 1.42607C 0.5 1.42514 0.5 1.42421 0.5 1.42328C 0.5 1.42235 0.5 1.42143 0.5 1.42049C 0.5 1.41956 0.5 1.41863 0.5 1.4177C 0.5 1.41677 0.5 1.41583 0.5 1.4149C 0.5 1.41397 0.5 1.41303 0.5 1.4121C 0.5 1.41116 0.5 1.41022 0.5 1.40929C 0.5 1.40835 0.5 1.40741 0.5 1.40647C 0.5 1.40553 0.5 1.40459 0.5 1.40365C 0.5 1.40271 0.5 1.40177 0.5 1.40082C 0.5 1.39988 0.5 1.39894 0.5 1.39799C 0.5 1.39705 0.5 1.3961 0.5 1.39516C 0.5 1.39421 0.5 1.39327 0.5 1.39232C 0.5 1.39137 0.5 1.39042 0.5 1.38947C 0.5 1.38852 0.5 1.38757 0.5 1.38662C 0.5 1.38567 0.5 1.38472 0.5 1.38377C 0.5 1.38282 0.5 1.38186 0.5 1.38091C 0.5 1.37995 0.5 1.379 0.5 1.37804C 0.5 1.37709 0.5 1.37613 0.5 1.37518C 0.5 1.37422 0.5 1.37326 0.5 1.3723C 0.5 1.37134 0.5 1.37039 0.5 1.36943C 0.5 1.36847 0.5 1.36751 0.5 1.36654C 0.5 1.36558 0.5 1.36462 0.5 1.36366C 0.5 1.3627 0.5 1.36173 0.5 1.36077C 0.5 1.3598 0.5 1.35884 0.5 1.35787C 0.5 1.35691 0.5 1.35594 0.5 1.35497C 0.5 1.35401 0.5 1.35304 0.5 1.35207C 0.5 1.3511 0.5 1.35014 0.5 1.34917C 0.5 1.3482 0.5 1.34723 0.5 1.34625C 0.5 1.34528 0.5 1.34431 0.5 1.34334C 0.5 1.34237 0.5 1.3414 0.5 1.34042C 0.5 1.33945 0.5 1.33847 0.5 1.3375C 0.5 1.33653 0.5 1.33555 0.5 1.33457C 0.5 1.3336 0.5 1.33262 0.5 1.33164C 0.5 1.33067 0.5 1.32969 0.5 1.32871C 0.5 1.32773 0.5 1.32675 0.5 1.32578C 0.5 1.3248 0.5 1.32382 0.5 1.32283C 0.5 1.32185 0.5 1.32087 0.5 1.31989C 0.5 1.31891 0.5 1.31793 0.5 1.31694C 0.5 1.31596 0.5 1.31498 0.5 1.31399C 0.5 1.31301 0.5 1.31203 0.5 1.31104C 0.5 1.31006 0.5 1.30907 0.5 1.30808C 0.5 1.3071 0.5 1.30611 0.5 1.30512C 0.5 1.30414 0.5 1.30315 0.5 1.30216C 0.5 1.30117 0.5 1.30018 0.5 1.2992C 0.5 1.29821 0.5 1.29722 0.5 1.29623C 0.5 1.29524 0.5 1.29425 0.5 1.29326C 0.5 1.29226 0.5 1.29127 0.5 1.29028C 0.5 1.28929 0.5 1.2883 0.5 1.2873C 0.5 1.28631 0.5 1.28532 0.5 1.28432C 0.5 1.28333 0.5 1.28234 0.5 1.28134C 0.5 1.28035 0.5 1.27935 0.5 1.27836C 0.5 1.27736 0.5 1.27636 0.5 1.27537C 0.5 1.27437 0.5 1.27337 0.5 1.27238C 0.5 1.27138 0.5 1.27038 0.5 1.26938C 0.5 1.26839 0.5 1.26739 0.5 1.26639C 0.5 1.26539 0.5 1.26439 0.5 1.26339C 0.5 1.26239 0.5 1.26139 0.5 1.26039C 0.5 1.25939 0.5 1.25839 0.5 1.25739C 0.5 1.25639 0.5 1.25539 0.5 1.25439C 0.5 1.25338 0.5 1.25238 0.5 1.25138C 0.5 1.25038 0.5 1.24937 0.5 1.24837C 0.5 1.24737 0.5 1.24636 0.5 1.24536C 0.5 1.24436 0.5 1.24335 0.5 1.24235C 0.5 1.24134 0.5 1.24034 0.5 1.23934C 0.5 1.23833 0.5 1.23732 0.5 1.23632C 0.5 1.23531 0.5 1.23431 0.5 1.2333C 0.5 1.2323 0.5 1.23129 0.5 1.23028C 0.5 1.22928 0.5 1.22827 0.5 1.22726C 0.5 1.22625 0.5 1.22525 0.5 1.22424C 0.5 1.22323 0.5 1.22222 0.5 1.22122C 0.5 1.22021 0.5 1.2192 0.5 1.21819C 0.5 1.21718 0.5 1.21617 0.5 1.21516C 0.5 1.21416 0.5 1.21315 0.5 1.21214C 0.5 1.21113 0.5 1.21012 0.5 1.20911C 0.5 1.2081 0.5 1.20709 0.5 1.20608C 0.5 1.20507 0.5 1.20406 0.5 1.20305C 0.5 1.20203 0.5 1.20102 0.5 1.20001C 0.5 1.199 0.5 1.19799 0.5 1.19698C 0.5 1.19597 0.5 1.19496 0.5 1.19394C 0.5 1.19293 0.5 1.19192 0.5 1.19091C 0.5 1.1899 0.5 1.18888 0.5 1.18787C 0.5 1.18686 0.5 1.18585 0.5 1.18483C 0.5 1.18382 0.5 1.18281 0.5 1.1818C 0.5 1.18078 0.5 1.17977 0.5 1.17876C 0.5 1.17775 0.5 1.17673 0.5 1.17572C 0.5 1.17471 0.5 1.17369 0.5 1.17268C 0.5 1.17167 0.5 1.17065 0.5 1.16964C 0.5 1.16863 0.5 1.16761 0.5 1.1666C 0.5 1.16558 0.5 1.16457 0.5 1.16356C 0.5 1.16254 0.5 1.16153 0.5 1.16052C 0.5 1.1595 0.5 1.15849 0.5 1.15747C 0.5 1.15646 0.5 1.15545 0.5 1.15443C 0.5 1.15342 0.5 1.1524 0.5 1.15139C 0.5 1.15038 0.5 1.14936 0.5 1.14835C 0.5 1.14733 0.5 1.14632 0.5 1.14531C 0.5 1.14429 0.5 1.14328 0.5 1.14226C 0.5 1.14125 0.5 1.14023 0.5 1.13922C 0.5 1.13821 0.5 1.13719 0.5 1.13618C 0.5 1.13516 0.5 1.13415 0.5 1.13314C 0.5 1.13212 0.5 1.13111 0.5 1.1301C 0.5 1.12908 0.5 1.12807 0.5 1.12705C 0.5 1.12604 0.5 1.12503 0.5 1.12401C 0.5 1.123 0.5 1.12199 0.5 1.12097C 0.5 1.11996 0.5 1.11895 0.5 1.11793C 0.5 1.11692 0.5 1.11591 0.5 1.11489C 0.5 1.11388 0.5 1.11287 0.5 1.11185C 0.5 1.11084 0.5 1.10983 0.5 1.10882C 0.5 1.1078 0.5 1.10679 0.5 1.10578C 0.5 1.10477 0.5 1.10375 0.5 1.10274C 0.5 1.10173 0.5 1.10072 0.5 1.09971C 0.5 1.09869 0.5 1.09768 0.5 1.09667C 0.5 1.09566 0.5 1.09465 0.5 1.09364C 0.5 1.09263 0.5 1.09161 0.5 1.0906C 0.5 1.08959 0.5 1.08858 0.5 1.08757C 0.5 1.08656 0.5 1.08555 0.5 1.08454C 0.5 1.08353 0.5 1.08252 0.5 1.08151C 0.5 1.0805 0.5 1.07949 0.5 1.07848C 0.5 1.07747 0.5 1.07646 0.5 1.07546C 0.5 1.07445 0.5 1.07344 0.5 1.07243C 0.5 1.07142 0.5 1.07041 0.5 1.06941C 0.5 1.0684 0.5 1.06739 0.5 1.06638C 0.5 1.06538 0.5 1.06437 0.5 1.06336C 0.5 1.06236 0.5 1.06135 0.5 1.06034C 0.5 1.05934 0.5 1.05833 0.5 1.05732C 0.5 1.05632 0.5 1.05531 0.5 1.05431C 0.5 1.0533 0.5 1.0523 0.5 1.05129C 0.5 1.05029 0.5 1.04928 0.5 1.04828C 0.5 1.04728 0.5 1.04627 0.5 1.04527C 0.5 1.04427 0.5 1.04326 0.5 1.04226C 0.5 1.04126 0.5 1.04026 0.5 1.03925C 0.5 1.03825 0.5 1.03725 0.5 1.03625C 0.5 1.03525 0.5 1.03425 0.5 1.03325C 0.5 1.03225 0.5 1.03125 0.5 1.03025C 0.5 1.02925 0.5 1.02825 0.5 1.02725C 0.5 1.02625 0.5 1.02525 0.5 1.02425C 0.5 1.02325 0.5 1.02226 0.5 1.02126C 0.5 1.02026 0.5 1.01926 0.5 1.01827C 0.5 1.01727 0.5 1.01627 0.5 1.01528C 0.5 1.01428 0.5 1.01329 0.5 1.01229C 0.5 1.0113 0.5 1.0103 0.5 1.00931C 0.5 1.00831 0.5 1.00732 0.5 1.00633C 0.5 1.00533 0.5 1.00434 0.5 1.00335C 0.5 1.00236 0.5 1.00137 0.5 1.00037C 0.5 0.999383 0.5 0.998392 0.5 0.997401C 0.5 0.996411 0.5 0.995421 0.5 0.994432C 0.5 0.993442 0.5 0.992453 0.5 0.991465C 0.5 0.990476 0.5 0.989488 0.5 0.988501C 0.5 0.987514 0.5 0.986527 0.5 0.98554C 0.5 0.984554 0.5 0.983568 0.5 0.982583C 0.5 0.981597 0.5 0.980612 0.5 0.979628C 0.5 0.978644 0.5 0.97766 0.5 0.976677C 0.5 0.975693 0.5 0.974711 0.5 0.973729C 0.5 0.972747 0.5 0.971765 0.5 0.970784C 0.5 0.969803 0.5 0.968823 0.5 0.967843C 0.5 0.966863 0.5 0.965884 0.5 0.964905C 0.5 0.963926 0.5 0.962948 0.5 0.961971C 0.5 0.960993 0.5 0.960016 0.5 0.95904C 0.5 0.958064 0.5 0.957088 0.5 0.956113C 0.5 0.955138 0.5 0.954164 0.5 0.95319C 0.5 0.952216 0.5 0.951243 0.5 0.95027C 0.5 0.949298 0.5 0.948326 0.5 0.947354C 0.5 0.946383 0.5 0.945412 0.5 0.944443C 0.5 0.943473 0.5 0.942503 0.5 0.941535C 0.5 0.940566 0.5 0.939598 0.5 0.938631C 0.5 0.937663 0.5 0.936697 0.5 0.935731C 0.5 0.934765 0.5 0.933799 0.5 0.932835C 0.5 0.93187 0.5 0.930906 0.5 0.929943C 0.5 0.92898 0.5 0.928017 0.5 0.927056C 0.5 0.926094 0.5 0.925133 0.5 0.924173C 0.5 0.923212 0.5 0.922253 0.5 0.921294C 0.5 0.920335 0.5 0.919377 0.5 0.918419C 0.5 0.917462 0.5 0.916505 0.5 0.915549C 0.5 0.914594 0.5 0.913638 0.5 0.912684C 0.5 0.91173 0.5 0.910776 0.5 0.909823C 0.5 0.90887 0.5 0.907918 0.5 0.906967C 0.5 0.906016 0.5 0.905065 0.5 0.904115C 0.5 0.903166 0.5 0.902217 0.5 0.901269C 0.5 0.90032 0.5 0.899373 0.5 0.898427C 0.5 0.89748 0.5 0.896534 0.5 0.895589C 0.5 0.894644 0.5 0.8937 0.5 0.892757C 0.5 0.891814 0.5 0.890872 0.5 0.88993C 0.5 0.888988 0.5 0.888048 0.5 0.887108C 0.5 0.886168 0.5 0.885229 0.5 0.884291C 0.5 0.883353 0.5 0.882415 0.5 0.881479C 0.5 0.880542 0.5 0.879607 0.5 0.878672C 0.5 0.877737 0.5 0.876804 0.5 0.875871C 0.5 0.874938 0.5 0.874006 0.5 0.873075C 0.5 0.872143 0.5 0.871213 0.5 0.870284C 0.5 0.869354 0.5 0.868426 0.5 0.867499C 0.5 0.866571 0.5 0.865644 0.5 0.864719C 0.5 0.863793 0.5 0.862868 0.5 0.861945C 0.5 0.861021 0.5 0.860098 0.5 0.859176C 0.5 0.858254 0.5 0.857333 0.5 0.856413C 0.5 0.855493 0.5 0.854574 0.5 0.853656C 0.5 0.852738 0.5 0.851821 0.5 0.850905C 0.5 0.849989 0.5 0.849073 0.5 0.848159C 0.5 0.847245 0.5 0.846332 0.5 0.84542C 0.5 0.844507 0.5 0.843596 0.5 0.842686C 0.5 0.841776 0.5 0.840867 0.5 0.839958C 0.5 0.83905 0.5 0.838143 0.5 0.837237C 0.5 0.836331 0.5 0.835426 0.5 0.834522C 0.5 0.833618 0.5 0.832715 0.5 0.831813C 0.5 0.830911 0.5 0.83001 0.5 0.82911C 0.5 0.82821 0.5 0.827311 0.5 0.826413C 0.5 0.825515 0.5 0.824619 0.5 0.823723C 0.5 0.822827 0.5 0.821933 0.5 0.821039C 0.5 0.820146 0.5 0.819253 0.5 0.818362C 0.5 0.817471 0.5 0.816581 0.5 0.815692C 0.5 0.814802 0.5 0.813914 0.5 0.813028C 0.5 0.812141 0.5 0.811255 0.5 0.81037C 0.5 0.809485 0.5 0.808602 0.5 0.80772C 0.5 0.806837 0.5 0.805956 0.5 0.805076C 0.5 0.804196 0.5 0.803317 0.5 0.802439C 0.5 0.801561 0.5 0.800684 0.5 0.799809C 0.5 0.798933 0.5 0.798059 0.5 0.797186C 0.5 0.796312 0.5 0.79544 0.5 0.794569C 0.5 0.793699 0.5 0.792829 0.5 0.79196C 0.5 0.791092 0.5 0.790225 0.5 0.789359C 0.5 0.788493 0.5 0.787628 0.5 0.786764C 0.5 0.7859 0.5 0.785038 0.5 0.784177C 0.5 0.783315 0.5 0.782455 0.5 0.781597C 0.5 0.780738 0.5 0.77988 0.5 0.779024C 0.5 0.778167 0.5 0.777312 0.5 0.776459C 0.5 0.775605 0.5 0.774752 0.5 0.773901C 0.5 0.773049 0.5 0.772199 0.5 0.771351C 0.5 0.770502 0.5 0.769654 0.5 0.768808C 0.5 0.767962 0.5 0.767117 0.5 0.766273C 0.5 0.765429 0.5 0.764587 0.5 0.763746C 0.5 0.762905 0.5 0.762065 0.5 0.761226C 0.5 0.760388 0.5 0.759551 0.5 0.758715C 0.5 0.757879 0.5 0.757044 0.5 0.756211C 0.5 0.755378 0.5 0.754546 0.5 0.753715C 0.5 0.752885 0.5 0.752056 0.5 0.751228C 0.5 0.7504 0.5 0.749573 0.5 0.748748C 0.5 0.747923 0.5 0.747099 0.5 0.746276C 0.5 0.745454 0.5 0.744633 0.5 0.743813C 0.5 0.742993 0.5 0.742175 0.5 0.741358C 0.5 0.740541 0.5 0.739726 0.5 0.738911C 0.5 0.738097 0.5 0.737284 0.5 0.736473C 0.5 0.735662 0.5 0.734852 0.5 0.734043C 0.5 0.733235 0.5 0.732427 0.5 0.731622C 0.5 0.730816 0.5 0.730012 0.5 0.729209C 0.5 0.728406 0.5 0.727604 0.5 0.726804C 0.5 0.726004 0.5 0.725206 0.5 0.724409C 0.5 0.723612 0.5 0.722816 0.5 0.722022C 0.5 0.721228 0.5 0.720435 0.5 0.719644C 0.5 0.718852 0.5 0.718063 0.5 0.717274C 0.5 0.716486 0.5 0.715699 0.5 0.714914C 0.5 0.714128 0.5 0.713345 0.5 0.712562C 0.5 0.71178 0.5 0.710999 0.5 0.71022C 0.5 0.709441 0.5 0.708663 0.5 0.707886C 0.5 0.70711 0.5 0.706335 0.5 0.705562C 0.5 0.704789 0.5 0.704017 0.5 0.703247C 0.5 0.702477 0.5 0.701708 0.5 0.700941C 0.5 0.700174 0.5 0.699409 0.5 0.698645C 0.5 0.697881 0.5 0.697118 0.5 0.696357C 0.5 0.695597 0.5 0.694837 0.5 0.69408C 0.5 0.693322 0.5 0.692566 0.5 0.691811C 0.5 0.691057 0.5 0.690304 0.5 0.689553C 0.5 0.688801 0.5 0.688052 0.5 0.687303C 0.5 0.686555 0.5 0.685809 0.5 0.685064C 0.5 0.684319 0.5 0.683576 0.5 0.682834C 0.5 0.682093 0.5 0.681352 0.5 0.680614C 0.5 0.679876 0.5 0.679139 0.5 0.678404C 0.5 0.677669 0.5 0.676935 0.5 0.676204C 0.5 0.675472 0.5 0.674742 0.5 0.674013C 0.5 0.673285 0.5 0.672558 0.5 0.671833C 0.5 0.671108 0.5 0.670384 0.5 0.669663C 0.5 0.668941 0.5 0.668221 0.5 0.667502C 0.5 0.666784 0.5 0.666067 0.5 0.665352C 0.5 0.664637 0.5 0.663924 0.5 0.663213C 0.5 0.662501 0.5 0.661791 0.5 0.661083C 0.5 0.660375 0.5 0.659669 0.5 0.658964C 0.5 0.658259 0.5 0.657556 0.5 0.656855C 0.5 0.656154 0.5 0.655455 0.5 0.654757C 0.5 0.654059 0.5 0.653363 0.5 0.652669C 0.5 0.651975 0.5 0.651283 0.5 0.650592C 0.5 0.649902 0.5 0.649213 0.5 0.648526C 0.5 0.647839 0.5 0.647153 0.5 0.64647C 0.5 0.645786 0.5 0.645105 0.5 0.644425C 0.5 0.643745 0.5 0.643067 0.5 0.642391C 0.5 0.641714 0.5 0.64104 0.5 0.640367C 0.5 0.639695 0.5 0.639024 0.5 0.638355C 0.5 0.637686 0.5 0.637019 0.5 0.636354C 0.5 0.635688 0.5 0.635025 0.5 0.634363C 0.5 0.633702 0.5 0.633042 0.5 0.632384C 0.5 0.631726 0.5 0.63107 0.5 0.630416C 0.5 0.629762 0.5 0.62911 0.5 0.628459C 0.5 0.627809 0.5 0.62716 0.5 0.626514C 0.5 0.625867 0.5 0.625222 0.5 0.624579C 0.5 0.623937 0.5 0.623296 0.5 0.622657C 0.5 0.622018 0.5 0.62138 0.5 0.620745C 0.5 0.62011 0.5 0.619477 0.5 0.618845C 0.5 0.618214 0.5 0.617585 0.5 0.616957C 0.5 0.61633 0.5 0.615704 0.5 0.615081C 0.5 0.614457 0.5 0.613835 0.5 0.613216C 0.5 0.612596 0.5 0.611978 0.5 0.611363C 0.5 0.610747 0.5 0.610133 0.5 0.609521C 0.5 0.608909 0.5 0.6083 0.5 0.607692C 0.5 0.607084 0.5 0.606478 0.5 0.605874C 0.5 0.60527 0.5 0.604669 0.5 0.604069C 0.5 0.603469 0.5 0.602871 0.5 0.602275C 0.5 0.601679 0.5 0.601086 0.5 0.600494C 0.5 0.599902 0.5 0.599312 0.5 0.598725C 0.5 0.598137 0.5 0.597551 0.5 0.596968C 0.5 0.596384 0.5 0.595802 0.5 0.595223C 0.5 0.594643 0.5 0.594066 0.5 0.59349C 0.5 0.592915 0.5 0.592342 0.5 0.59177C 0.5 0.591199 0.5 0.59063 0.5 0.590063C 0.5 0.589496 0.5 0.588931 0.5 0.588368C 0.5 0.587805 0.5 0.587244 0.5 0.586685C 0.5 0.586127 0.5 0.58557 0.5 0.585016C 0.5 0.584461 0.5 0.583909 0.5 0.583359C 0.5 0.582808 0.5 0.58226 0.5 0.581714C 0.5 0.581168 0.5 0.580624 0.5 0.580083C 0.5 0.579541 0.5 0.579001 0.5 0.578464C 0.5 0.577926 0.5 0.577391 0.5 0.576858C 0.5 0.576325 0.5 0.575794 0.5 0.575265C 0.5 0.574736 0.5 0.57421 0.5 0.573685C 0.5 0.573161 0.5 0.572639 0.5 0.572119C 0.5 0.571599 0.5 0.571081 0.5 0.570565C 0.5 0.57005 0.5 0.569536 0.5 0.569025C 0.5 0.568514 0.5 0.568005 0.5 0.567498C 0.5 0.566991 0.5 0.566486 0.5 0.565984C 0.5 0.565482 0.5 0.564982 0.5 0.564484C 0.5 0.563986 0.5 0.56349 0.5 0.562997C 0.5 0.562504 0.5 0.562012 0.5 0.561524C 0.5 0.561035 0.5 0.560548 0.5 0.560064C 0.5 0.559579 0.5 0.559097 0.5 0.558618C 0.5 0.558138 0.5 0.55766 0.5 0.557185C 0.5 0.55671 0.5 0.556237 0.5 0.555766C 0.5 0.555296 0.5 0.554827 0.5 0.554361C 0.5 0.553895 0.5 0.553432 0.5 0.55297C 0.5 0.552509 0.5 0.55205 0.5 0.551593C 0.5 0.551136 0.5 0.550682 0.5 0.55023C 0.5 0.549778 0.5 0.549328 0.5 0.548881C 0.5 0.548433 0.5 0.547988 0.5 0.547546C 0.5 0.547103 0.5 0.546663 0.5 0.546225C 0.5 0.545787 0.5 0.545351 0.5 0.544918C 0.5 0.544485 0.5 0.544054 0.5 0.543625C 0.5 0.543197 0.5 0.542771 0.5 0.542347C 0.5 0.541924 0.5 0.541502 0.5 0.541083C 0.5 0.540665 0.5 0.540248 0.5 0.539834C 0.5 0.53942 0.5 0.539008 0.5 0.538599C 0.5 0.53819 0.5 0.537783 0.5 0.537379C 0.5 0.536975 0.5 0.536573 0.5 0.536173C 0.5 0.535774 0.5 0.535377 0.5 0.534982C 0.5 0.534588 0.5 0.534196 0.5 0.533806C 0.5 0.533416 0.5 0.533029 0.5 0.532645C 0.5 0.53226 0.5 0.531878 0.5 0.531498C 0.5 0.531118 0.5 0.530741 0.5 0.530366C 0.5 0.529991 0.5 0.529619 0.5 0.529249C 0.5 0.52888 0.5 0.528512 0.5 0.528148C 0.5 0.527783 0.5 0.527421 0.5 0.527061C 0.5 0.526701 0.5 0.526344 0.5 0.52599C 0.5 0.525635 0.5 0.525283 0.5 0.524933C 0.5 0.524584 0.5 0.524237 0.5 0.523892C 0.5 0.523548 0.5 0.523206 0.5 0.522866C 0.5 0.522527 0.5 0.52219 0.5 0.521856C 0.5 0.521522 0.5 0.52119 0.5 0.520861C 0.5 0.520532 0.5 0.520206 0.5 0.519882C 0.5 0.519558 0.5 0.519237 0.5 0.518918C 0.5 0.518599 0.5 0.518283 0.5 0.51797C 0.5 0.517656 0.5 0.517345 0.5 0.517037C 0.5 0.516729 0.5 0.516423 0.5 0.51612C 0.5 0.515817 0.5 0.515517 0.5 0.515219C 0.5 0.514921 0.5 0.514626 0.5 0.514334C 0.5 0.514041 0.5 0.513751 0.5 0.513464C 0.5 0.513177 0.5 0.512893 0.5 0.512611C 0.5 0.512329 0.5 0.51205 0.5 0.511773C 0.5 0.511497 0.5 0.511223 0.5 0.510952C 0.5 0.510681 0.5 0.510413 0.5 0.510147L -0.5 0.510147ZM -0.5 1.7345C -0.5 2.03153 -0.281851 2.19199 -0.214726 2.23757C -0.119631 2.30215 -0.0109316 2.34712 0.0806133 2.37943C 0.270339 2.44641 0.512196 2.50172 0.754712 2.54729C 1.24661 2.63972 1.82846 2.70781 2.21381 2.74262L 2.30378 1.74667C 1.9362 1.71347 1.38865 1.64891 0.939386 1.56449C 0.71132 1.52164 0.529652 1.47747 0.413499 1.43647C 0.352104 1.41479 0.337276 1.40364 0.347077 1.4103C 0.352573 1.41403 0.383559 1.43523 0.416725 1.47934C 0.452348 1.52672 0.5 1.61446 0.5 1.7345L -0.5 1.7345ZM 2.16794 2.73632C 2.58223 2.81288 3.11083 2.69166 3.51906 2.51891C 3.73339 2.42821 3.94793 2.30968 4.12607 2.16458C 4.29515 2.02687 4.48381 1.82248 4.55136 1.54784L 3.58031 1.30898C 3.58763 1.27922 3.58931 1.31204 3.49454 1.38923C 3.40885 1.45903 3.28268 1.53308 3.12934 1.59798C 2.8022 1.73641 2.48752 1.77845 2.34965 1.75297L 2.16794 2.73632ZM 4.55136 1.54784C 4.6341 1.21151 4.51775 0.903165 4.37467 0.678431C 4.2289 0.449481 4.02005 0.247797 3.79993 0.0837373C 3.37281 -0.234594 2.78024 -0.5 2.2588 -0.5L 2.2588 0.5C 2.49028 0.5 2.87653 0.642711 3.20234 0.885542C 3.35868 1.00206 3.46983 1.11922 3.53112 1.21549C 3.5951 1.31597 3.57287 1.33923 3.58031 1.30898L 4.55136 1.54784Z"/>
<path id="path4_stroke" d="M 0 2.97669L -0.5 2.97669L -0.5 3.10044L -0.442278 3.20991L 0 2.97669ZM 0.682448 4.2709L 0.24017 4.50412L 0.380847 4.7709L 0.682448 4.7709L 0.682448 4.2709ZM 1.91085 4.2709L 1.91085 4.7709L 2.41085 4.7709L 2.41085 4.2709L 1.91085 4.2709ZM 1.91085 2.97669L 1.417 2.89856L 1.41085 2.93739L 1.41085 2.97669L 1.91085 2.97669ZM -0.5 0L -0.5 2.97669L 0.5 2.97669L 0.5 0L -0.5 0ZM -0.442278 3.20991L 0.24017 4.50412L 1.12473 4.03768L 0.442278 2.74347L -0.442278 3.20991ZM 0.682448 4.7709L 1.91085 4.7709L 1.91085 3.7709L 0.682448 3.7709L 0.682448 4.7709ZM 2.41085 4.2709L 2.41085 2.97669L 1.41085 2.97669L 1.41085 4.2709L 2.41085 4.2709ZM 2.40471 3.05481L 2.81418 0.466388L 1.82646 0.310139L 1.417 2.89856L 2.40471 3.05481Z"/>
<path id="path5_stroke" d="M 13.9706 1.27273L 14.3463 0.942804L 14.2146 0.792889L 14.016 0.774789L 13.9706 1.27273ZM 15.4639 2.21553L 14.3463 0.942804L 13.5949 1.60265L 14.7125 2.87538L 15.4639 2.21553ZM 14.016 0.774789L 0.0453624 -0.497938L -0.0453624 0.497938L 13.9252 1.77066L 14.016 0.774789Z"/>
<path id="path6_stroke" d="M 0.967244 0.177998C 1.06555 -0.080054 0.936049 -0.368938 0.677998 -0.467244C 0.419946 -0.565549 0.131062 -0.436049 0.0327561 -0.177998L 0.967244 0.177998ZM -0.488094 1.64153C -0.547997 1.9111 -0.378032 2.17819 -0.108465 2.23809C 0.161101 2.298 0.42819 2.12803 0.488094 1.85847L -0.488094 1.64153ZM 0.0327561 -0.177998C -0.20643 0.449866 -0.350592 1.02278 -0.488094 1.64153L 0.488094 1.85847C 0.621766 1.25694 0.753599 0.738815 0.967244 0.177998L 0.0327561 -0.177998Z"/>
<path id="path7_stroke" d="M 1.23324 0.128361C 1.30413 -0.138526 1.14525 -0.412351 0.878361 -0.483243C 0.611474 -0.554135 0.337649 -0.395249 0.266757 -0.128361L 1.23324 0.128361ZM -0.447214 1.77639C -0.570708 2.02338 -0.470596 2.32372 -0.223607 2.44721C 0.0233825 2.57071 0.323719 2.4706 0.447214 2.22361L -0.447214 1.77639ZM 0.266757 -0.128361C 0.0766585 0.587305 -0.139789 1.16154 -0.447214 1.77639L 0.447214 2.22361C 0.786609 1.54482 1.02657 0.906418 1.23324 0.128361L 0.266757 -0.128361Z"/>
<path id="path8_stroke" d="M 0.48576 -0.118478C 0.420327 -0.386756 0.1498 -0.551194 -0.118478 -0.48576C -0.386756 -0.420327 -0.551194 -0.1498 -0.48576 0.118478L 0.48576 -0.118478ZM 0.343133 1.79062C 0.503638 2.01533 0.815913 2.06737 1.04062 1.90687C 1.26533 1.74636 1.31737 1.43409 1.15687 1.20938L 0.343133 1.79062ZM -0.48576 0.118478C -0.392243 0.501898 -0.287132 0.784236 -0.144824 1.04922C -0.00822542 1.30357 0.15815 1.53164 0.343133 1.79062L 1.15687 1.20938C 0.958739 0.932002 0.835898 0.761789 0.736166 0.576085C 0.642145 0.401014 0.563811 0.20153 0.48576 -0.118478L -0.48576 0.118478Z"/>
<path id="path9_stroke" d="M 2.32602 0.379093C 2.53539 0.199037 2.55915 -0.116653 2.37909 -0.32602C 2.19904 -0.535387 1.88335 -0.559148 1.67398 -0.379093L 2.32602 0.379093ZM -0.464238 2.0643C -0.566795 2.3207 -0.442087 2.61168 -0.185695 2.71424C 0.0706964 2.8168 0.361682 2.69209 0.464238 2.4357L -0.464238 2.0643ZM 1.67398 -0.379093C 0.936145 0.255446 -0.0195079 0.952478 -0.464238 2.0643L 0.464238 2.4357C 0.794675 1.6096 1.49027 1.09784 2.32602 0.379093L 1.67398 -0.379093Z"/>
<path id="path10_stroke" d="M 2.35628 0.350802C 2.55003 0.154032 2.54757 -0.162541 2.3508 -0.356283C 2.15403 -0.550026 1.83746 -0.547572 1.64372 -0.350802L 2.35628 0.350802ZM -0.390434 1.93765C -0.562939 2.15328 -0.527978 2.46793 -0.312348 2.64043C -0.0967166 2.81294 0.21793 2.77798 0.390434 2.56235L -0.390434 1.93765ZM 1.64372 -0.350802C 0.911933 0.392416 0.250826 1.13608 -0.390434 1.93765L 0.390434 2.56235C 1.00988 1.78804 1.64814 1.07001 2.35628 0.350802L 1.64372 -0.350802Z"/>
</defs>
</svg>
