<svg width="21" height="32" viewBox="0 0 21 32" version="1.1" xmlns="http://www.w3.org/2000/svg" xmlns:xlink="http://www.w3.org/1999/xlink">
<title>ChristmasTree</title>
<desc>Created using Figma</desc>
<g id="Canvas" transform="translate(155 253)">
<g id="ChristmasTree">
<g id="Tree">
<use xlink:href="#path0_fill" transform="translate(-154 -252)" fill="#219653"/>
<use xlink:href="#path1_stroke" transform="translate(-154 -252)"/>
</g>
<g id="Tree-root">
<use xlink:href="#path2_fill" transform="translate(-147.5 -226)" fill="#99561A"/>
<use xlink:href="#path3_stroke" transform="translate(-147.5 -226)"/>
</g>
</g>
</g>
<defs>
<path id="path0_fill" d="M 13 30L 6 30L 6 21.9512L 0 21.9512L 6 12.439L 2.5 12.439L 9.5 0L 17 12.439L 13 12.439L 19.5 21.9512L 13 21.9512L 13 30Z"/>
<path id="path1_stroke" d="M 6 30L 5.875 30L 5.875 30.125L 6 30.125L 6 30ZM 13 30L 13 30.125L 13.125 30.125L 13.125 30L 13 30ZM 13 21.9512L 13 21.8262L 12.875 21.8262L 12.875 21.9512L 13 21.9512ZM 19.5 21.9512L 19.5 22.0762L 19.7368 22.0762L 19.6032 21.8807L 19.5 21.9512ZM 13 12.439L 13 12.314L 12.7632 12.314L 12.8968 12.5095L 13 12.439ZM 17 12.439L 17 12.564L 17.2213 12.564L 17.107 12.3745L 17 12.439ZM 9.5 0L 9.60705 -0.0645433L 9.49627 -0.248263L 9.39106 -0.0613029L 9.5 0ZM 2.5 12.439L 2.39106 12.3777L 2.28622 12.564L 2.5 12.564L 2.5 12.439ZM 6 12.439L 6.10572 12.5057L 6.22664 12.314L 6 12.314L 6 12.439ZM 0 21.9512L -0.105725 21.8845L -0.226636 22.0762L 0 22.0762L 0 21.9512ZM 6 21.9512L 6.125 21.9512L 6.125 21.8262L 6 21.8262L 6 21.9512ZM 6 30.125L 13 30.125L 13 29.875L 6 29.875L 6 30.125ZM 13.125 30L 13.125 21.9512L 12.875 21.9512L 12.875 30L 13.125 30ZM 13 22.0762L 19.5 22.0762L 19.5 21.8262L 13 21.8262L 13 22.0762ZM 19.6032 21.8807L 13.1032 12.3685L 12.8968 12.5095L 19.3968 22.0217L 19.6032 21.8807ZM 13 12.564L 17 12.564L 17 12.314L 13 12.314L 13 12.564ZM 17.107 12.3745L 9.60705 -0.0645433L 9.39295 0.0645433L 16.893 12.5036L 17.107 12.3745ZM 9.39106 -0.0613029L 2.39106 12.3777L 2.60894 12.5003L 9.60894 0.0613029L 9.39106 -0.0613029ZM 2.5 12.564L 6 12.564L 6 12.314L 2.5 12.314L 2.5 12.564ZM 5.89428 12.3723L -0.105725 21.8845L 0.105725 22.0179L 6.10572 12.5057L 5.89428 12.3723ZM 0 22.0762L 6 22.0762L 6 21.8262L 0 21.8262L 0 22.0762ZM 5.875 21.9512L 5.875 30L 6.125 30L 6.125 21.9512L 5.875 21.9512Z"/>
<path id="path2_fill" d="M 6 0L 0 0L 0 4L 6 4L 6 0Z"/>
<path id="path3_stroke" d="M 0 0L 0 -0.5L -0.5 -0.5L -0.5 0L 0 0ZM 6 0L 6.5 0L 6.5 -0.5L 6 -0.5L 6 0ZM 6 4L 6 4.5L 6.5 4.5L 6.5 4L 6 4ZM 0 4L -0.5 4L -0.5 4.5L 0 4.5L 0 4ZM 0 0.5L 6 0.5L 6 -0.5L 0 -0.5L 0 0.5ZM 5.5 0L 5.5 4L 6.5 4L 6.5 0L 5.5 0ZM 6 3.5L 0 3.5L 0 4.5L 6 4.5L 6 3.5ZM 0.5 4L 0.5 0L -0.5 0L -0.5 4L 0.5 4Z"/>
</defs>
</svg>
