<svg width="21" height="13" viewBox="0 0 21 13" version="1.1" xmlns="http://www.w3.org/2000/svg" xmlns:xlink="http://www.w3.org/1999/xlink">
<title>cloud_two</title>
<desc>Created using Figma</desc>
<g id="Canvas" transform="translate(122 269)">
<g id="cloud_two">
<use xlink:href="#path0_fill" transform="translate(-122 -269)" fill="#FFFFFF"/>
</g>
</g>
<defs>
<path id="path0_fill" d="M 7.37615 1.42676C 8.72486 -0.268204 12.4861 -0.627103 13.591 1.30637C 13.7817 1.64005 14.0303 2.43546 14.2561 2.66124C 14.3392 2.74438 15.6753 2.31637 15.9189 2.31637C 17.0367 2.31637 18.4219 2.36496 19.0844 3.4249C 19.7858 4.54719 19.0748 5.5096 19.5278 6.52879C 19.9195 7.41016 20.4627 9.35705 19.7988 10.187C 19.2888 10.8245 16.4301 10.7641 15.8573 10.2485C 15.2504 9.70234 13.8046 11.8389 13.049 12.1823C 11.9568 12.6788 9.1126 12.9362 8.15917 12.1946C 7.79737 11.9132 7.23817 11.3253 7.65417 10.7905C 8.19669 10.093 6.27542 11.9645 5.4371 12.2439C 3.99167 12.7257 3.22946 12.1653 2.55492 10.7412C 2.31568 10.2362 2.06224 9.61618 2.06224 9.07842C 2.06224 7.76498 1.97833 8.91812 1.39712 8.19159C 1.06609 7.77781 0.41591 7.57174 0.116143 6.97221C -0.214619 6.31068 0.237375 5.3256 0.522605 4.75514C 0.818751 4.16285 1.39712 3.57206 1.39712 3.20319C 1.39712 2.31862 1.69148 1.65265 2.28394 0.986126C 3.17478 -0.0160629 4.65471 0.321006 5.9421 0.321006C 6.59144 0.321006 7.18792 0.894634 7.37615 1.42676Z"/>
</defs>
</svg>
