<svg width="23" height="13" viewBox="0 0 23 13" version="1.1" xmlns="http://www.w3.org/2000/svg" xmlns:xlink="http://www.w3.org/1999/xlink">
<title>cloud_one</title>
<desc>Created using Figma</desc>
<g id="Canvas" transform="translate(169 273)">
<g id="cloud_one">
<use xlink:href="#path0_fill" transform="translate(-169 -273)" fill="#F0F4F5"/>
</g>
</g>
<defs>
<path id="path0_fill" d="M 14.9266 1.59005C 15.2802 1.95418 15.3651 2.3605 15.5246 2.81731C 15.956 2.75245 16.7199 2.99101 16.9324 3.00664C 17.3005 3.03371 17.7635 3.1531 18.0991 3.30859C 18.3781 3.43789 18.7013 3.52611 18.9694 3.67478C 19.3743 3.89931 19.6713 4.44694 19.6713 4.91149C 19.6713 5.23291 19.563 5.52052 19.5153 5.8334C 19.4752 6.09646 19.4825 6.40687 19.3001 6.6236C 19.2145 6.72534 18.8667 6.88058 18.9975 6.88058C 19.1765 6.88058 19.3556 6.96851 19.534 6.99301C 19.7796 7.02672 20.0288 6.98528 20.2765 7.02513C 20.6367 7.08309 20.9336 7.27438 21.2622 7.42023C 21.4885 7.52069 21.7282 7.56089 21.9423 7.68685C 22.3874 7.94878 22.7231 8.21882 22.9592 8.70512C 23.0666 8.92628 22.928 9.29828 22.928 9.5403C 22.928 10.0206 22.818 10.8881 22.3665 11.1593C 22.0568 11.3453 22.2048 11.678 21.936 11.9045C 21.6644 12.1333 21.4601 12.3448 21.1031 12.4313C 20.6064 12.5517 20.2036 12.7782 19.69 12.7782L 19.0599 12.7782C 18.8658 12.7782 18.6805 12.6245 18.5046 12.5469C 18.1565 12.3933 17.728 11.8531 17.3348 11.8531C 17.0498 11.8531 16.7738 12.3037 16.4957 12.3992C 16.1475 12.5187 15.7963 12.5469 15.4319 12.5469C 15.2166 12.5469 15.0045 12.6923 14.7862 12.6497C 14.6002 12.6135 14.4836 12.5084 14.3152 12.4313C 14.0046 12.2892 13.5335 12.1065 13.2826 11.8659C 12.9511 11.5481 12.5347 12.7799 12.1472 12.8939C 11.5111 13.081 10.6168 12.9917 9.96977 12.8489C 9.44967 12.7341 8.63088 12.3952 8.2759 11.9687C 8.1411 11.8068 7.99616 11.5511 7.7955 11.7118C 7.60288 11.866 7.35503 11.9153 7.16225 12.0972C 6.97354 12.2754 6.76052 12.3819 6.57579 12.5341C 6.40532 12.6745 5.75781 12.5086 5.5838 12.4923C 4.88013 12.4265 4.17419 12.2924 3.48129 12.1422C 2.94888 12.0268 2.5223 11.6865 2.02762 11.4933C 1.65769 11.3488 1.33687 11.0711 1.06059 10.7866C 0.850142 10.5699 0.77386 10.3297 0.605144 10.0928C 0.511832 9.96177 0.389369 9.85732 0.311915 9.71376C -0.0450084 9.05219 -0.05367 8.29419 0.077955 7.54872C 0.203304 6.8388 0.554546 6.10305 0.580188 5.39011C 0.601896 4.78656 1.03986 4.22242 1.39749 3.78721C 1.89779 3.17836 2.85407 2.87222 3.6123 2.83318C 4.29727 2.79791 5.11073 2.73599 5.77409 2.88779C 6.18235 2.98121 6.61713 3.06326 6.98132 3.25077C 7.11606 3.32014 8.10433 3.76792 8.10433 3.55272C 8.10433 3.0754 8.21663 2.63706 8.21663 2.16825C 8.21663 1.75472 8.73614 1.24221 9.00273 0.98294C 9.34161 0.653378 9.85691 0.28316 10.3223 0.176672C 10.5346 0.128076 10.7752 0 10.9961 0C 11.2012 0 11.3948 0.0469006 11.5856 0.05782C 11.8045 0.0703393 12.0278 0.05782 12.247 0.05782L 12.2569 0.0578188C 12.4339 0.0577864 12.7534 0.0577279 12.9052 0.14455C 13.247 0.340121 13.5997 0.471424 13.8878 0.75166C 14.0266 0.886601 14.2366 0.958786 14.3932 1.05361C 14.5793 1.16639 14.7703 1.42915 14.9266 1.59005Z"/>
</defs>
</svg>
