<svg width="18" height="21" viewBox="0 0 18 21" version="1.1" xmlns="http://www.w3.org/2000/svg" xmlns:xlink="http://www.w3.org/1999/xlink">
<title>cloud_moose</title>
<desc>Created using Figma</desc>
<g id="Canvas" transform="translate(139 273)">
<g id="cloud_moose">
<use xlink:href="#path0_fill" transform="translate(-139 -273)" fill="#F0EDED"/>
</g>
</g>
<defs>
<path id="path0_fill" d="M 12.279 11.1598C 12.6716 11.4733 12.7196 11.8306 13.1869 12.6718C 13.5275 13.285 13.7411 14.6323 13.7411 15.3323C 13.7411 15.9895 13.6708 17.8819 12.7435 17.8819C 11.8635 17.8819 11.6983 19.4092 10.9698 19.9758C 10.2143 20.5634 9.1041 20.5212 8.29701 20.7518C 7.28525 21.0408 5.28098 20.9051 4.20775 20.7518C 3.56165 20.6595 3.35823 20.2261 3.00068 19.7664C 2.86876 19.5968 2.84974 19.1221 2.85626 18.8372C 2.67221 19.4944 1.34171 19.8027 0.783617 19.6432C -0.912161 19.1587 0.68187 15.6033 1.43642 14.9997C 1.92056 14.6124 2.65581 13.9826 2.65581 13.3369C 2.65581 12.0544 3.08093 11.2164 4.08458 10.3562C 4.28608 10.1835 5.00277 9.90044 4.73739 9.90044L 3.43178 9.90044C 2.43557 9.90044 1.31452 10.1111 0.549593 9.34618C -0.277746 8.51884 0.0182407 7.41398 0.22935 6.46399C 0.426004 5.57904 2.05196 5.84598 1.67044 5.35545C 1.13389 4.6656 -0.269183 2.14447 0.488008 1.30315C 0.549912 1.23437 1.42648 1.01707 1.49801 1.08144C 1.84254 1.39152 1.76898 1.9543 1.76898 2.36241C 1.76898 2.84279 1.5202 3.23235 1.54727 3.69265C 1.56018 3.91203 2.23503 4.18082 2.4341 4.35778C 2.90532 4.77664 5.04761 4.44608 5.09458 5.2446C 5.12363 5.73845 4.58573 7.94567 5.31629 7.90508C 5.72416 7.88242 6.30549 6.92434 6.81897 6.74728C 7.05094 6.66729 8.98521 5.94296 8.42018 5.90972C 7.53623 5.85772 7.31083 3.85273 8.42018 3.91436C 9.53328 3.9762 10.4494 4.63706 10.4155 5.78655C 10.4091 6.00597 9.77896 7.38706 9.79969 7.4124C 10.2369 7.9468 10.8661 7.90508 11.4748 7.90508C 13.3955 7.90508 13.1811 5.88938 13.7411 4.40704C 14.1942 3.20784 14.035 1.61628 14.6772 0.588761C 14.9411 0.166655 17.7304 -0.173417 17.4609 0.0960794C 16.8161 0.740884 15.3508 2.32367 16.1306 3.29851C 16.955 4.32896 15.3998 5.80301 14.8497 6.35314C 14.1867 7.01615 13.2778 8.17171 12.9036 9.01362C 12.6981 9.476 12.631 10.5259 12.279 11.1598Z"/>
</defs>
</svg>
