<svg width="12" height="17" viewBox="0 0 12 17" version="1.1" xmlns="http://www.w3.org/2000/svg" xmlns:xlink="http://www.w3.org/1999/xlink">
<title>Three</title>
<desc>Created using Figma</desc>
<g id="Canvas" transform="translate(167 253)">
<g id="Three">
<g id="Vector">
<use xlink:href="#path0_fill" transform="translate(-162.5 -243)" fill="#8F5827"/>
<use xlink:href="#path1_stroke" transform="translate(-162.5 -243)"/>
</g>
<g id="Vector 2">
<use xlink:href="#path2_fill" transform="translate(-166 -252)" fill="#219653"/>
<use xlink:href="#path3_stroke" transform="translate(-166 -252)" fill="#27AE60"/>
</g>
</g>
</g>
<defs>
<path id="path0_fill" d="M 0 6.5L 0 0L 3.5 0L 3.5 6.5L 0 6.5Z"/>
<path id="path1_stroke" d="M 0 0L 0 -0.25L -0.25 -0.25L -0.25 0L 0 0ZM 0 6.5L -0.25 6.5L -0.25 6.75L 0 6.75L 0 6.5ZM 3.5 6.5L 3.5 6.75L 3.75 6.75L 3.75 6.5L 3.5 6.5ZM 3.5 0L 3.75 0L 3.75 -0.25L 3.5 -0.25L 3.5 0ZM -0.25 0L -0.25 6.5L 0.25 6.5L 0.25 0L -0.25 0ZM 0 6.75L 3.5 6.75L 3.5 6.25L 0 6.25L 0 6.75ZM 3.75 6.5L 3.75 0L 3.25 0L 3.25 6.5L 3.75 6.5ZM 3.5 -0.25L 0 -0.25L 0 0.25L 3.5 0.25L 3.5 -0.25Z"/>
<path id="path2_fill" d="M 3.06213 0.683788C 3.87004 0.222123 4.46073 0.274635 5.40339 0.274635C 5.74749 -0.413549 7.65272 0.364547 8.01743 0.72925C 8.24819 0.960019 7.86274 1.60565 8.17654 1.69531C 8.47526 1.78065 9.23704 1.68938 9.29035 2.11582C 9.35935 2.66788 9.44031 2.82186 9.30171 3.44557C 9.16094 4.07902 9.54061 3.50262 9.94954 3.91155C 10.6799 4.64192 10.4715 5.5198 9.29035 5.59362C 9.2848 5.59397 10.3922 7.3872 10.0632 7.7985C 9.59854 8.37931 7.79913 8.04395 8.88119 8.61681C 9.40184 8.89245 8.71054 9.57317 8.35839 9.67379C 7.98706 9.77988 7.4754 9.07142 7.04 9.07142C 6.33961 9.07142 7.00106 10.28 6.11941 9.59423C 5.73741 9.29712 5.84569 9.03 5.44885 9.52604C 5.20659 9.82886 5.21177 10.3151 4.78966 9.78744C 4.55906 9.49918 4.21328 9.17096 3.9259 8.91231C 3.11656 8.18391 3.62143 10.4718 2.38021 9.23054C 2.03091 8.88124 1.98216 8.86685 1.61873 8.86685C 0.964094 8.86685 0.795248 8.9371 0.448096 8.50316C -0.248688 7.63218 0.974843 6.65553 0.652672 6.25281C 0.0362287 5.48226 -0.285806 5.21601 0.334442 4.16159C 0.581624 3.74138 0.876358 3.93487 0.198058 3.74107C -0.27852 3.60491 0.29393 2.83826 0.448096 2.68409C 0.697684 2.4345 1.09007 2.01845 1.42552 1.92261C 1.62543 1.86549 2.54534 1.81431 2.65298 1.70667C 2.70511 1.65454 2.70416 0.888343 3.06213 0.683788Z"/>
<path id="path3_stroke" d="M 5.40339 0.274635L 5.40339 0.774635C 5.59278 0.774635 5.76591 0.667634 5.85061 0.498242L 5.40339 0.274635ZM 3.06213 0.683788L 2.81406 0.249667L 3.06213 0.683788ZM 1.42552 1.92261L 1.56288 2.40337L 1.42552 1.92261ZM 0.198058 3.74107L 0.335418 3.26031L 0.198058 3.74107ZM 0.334442 4.16159L -0.0965249 3.90808L 0.334442 4.16159ZM 0.652672 6.25281L 1.04311 5.94047L 0.652672 6.25281ZM 0.448096 8.50316L 0.83853 8.19081L 0.448096 8.50316ZM 3.9259 8.91231L 4.26038 8.54066L 3.9259 8.91231ZM 4.78966 9.78744L 5.1801 9.47509L 4.78966 9.78744ZM 5.44885 9.52604L 5.83929 9.83839L 5.44885 9.52604ZM 6.11941 9.59423L 6.42638 9.19955L 6.11941 9.59423ZM 8.35839 9.67379L 8.49575 10.1545L 8.35839 9.67379ZM 8.88119 8.61681L 8.64725 9.0587L 8.88119 8.61681ZM 10.0632 7.7985L 10.4536 8.11085L 10.0632 7.7985ZM 9.30171 3.44557L 8.81362 3.33711L 9.30171 3.44557ZM 8.17654 1.69531L 8.3139 1.21454L 8.17654 1.69531ZM 5.40339 -0.225365C 4.49385 -0.225365 3.75862 -0.29008 2.81406 0.249667L 3.3102 1.11791C 3.98147 0.734327 4.42761 0.774635 5.40339 0.774635L 5.40339 -0.225365ZM 2.81406 0.249667C 2.60789 0.36748 2.48349 0.547662 2.40793 0.697706C 2.33125 0.849999 2.28526 1.01027 2.25539 1.14116C 2.22524 1.27332 2.20666 1.39877 2.19452 1.47662C 2.18763 1.52083 2.18412 1.54123 2.18201 1.55105C 2.18089 1.55628 2.18298 1.54484 2.18962 1.52563C 2.19306 1.51567 2.20043 1.49559 2.21326 1.47071C 2.22453 1.44884 2.25082 1.40172 2.29942 1.35312L 3.00653 2.06022C 3.09632 1.97044 3.12905 1.86881 3.13484 1.85205C 3.14737 1.81578 3.15513 1.78234 3.15967 1.76123C 3.16889 1.71838 3.17665 1.66876 3.1826 1.63061C 3.19613 1.54375 3.20946 1.45509 3.23034 1.36361C 3.2515 1.27087 3.27565 1.19798 3.30109 1.14745C 3.32767 1.09467 3.33739 1.10237 3.3102 1.11791L 2.81406 0.249667ZM 2.29942 1.35312C 2.37694 1.2756 2.4533 1.259 2.42104 1.26963C 2.41279 1.27235 2.38956 1.27878 2.34616 1.28743C 2.26081 1.30444 2.14492 1.32089 2.01213 1.33741C 1.94707 1.3455 1.88098 1.35325 1.81518 1.36096C 1.75015 1.36858 1.68479 1.37623 1.62446 1.38378C 1.52011 1.39683 1.38292 1.41478 1.28816 1.44185L 1.56288 2.40337C 1.55733 2.40496 1.56872 2.40167 1.60977 2.39514C 1.64613 2.38936 1.6925 2.38306 1.74856 2.37605C 1.80426 2.36908 1.86547 2.36191 1.93155 2.35417C 1.99686 2.34652 2.06642 2.33836 2.13557 2.32976C 2.2712 2.31289 2.41796 2.29279 2.54162 2.26814C 2.60272 2.25597 2.67058 2.2403 2.73402 2.21939C 2.77345 2.2064 2.9021 2.16465 3.00653 2.06022L 2.29942 1.35312ZM 1.28816 1.44185C 1.00963 1.52143 0.758313 1.71211 0.578671 1.86654C 0.389062 2.02953 0.210364 2.21472 0.0945424 2.33054L 0.801649 3.03765C 0.935416 2.90388 1.07771 2.75625 1.23055 2.62486C 1.39336 2.4849 1.50596 2.41964 1.56288 2.40337L 1.28816 1.44185ZM 0.0945424 2.33054C -0.0190229 2.4441 -0.238179 2.72318 -0.369239 3.01376C -0.431442 3.15168 -0.509266 3.36735 -0.482215 3.59832C -0.467282 3.72582 -0.419021 3.86681 -0.312561 3.98993C -0.206782 4.11225 -0.0721547 4.18387 0.0606973 4.22183L 0.335418 3.26031C 0.349126 3.26422 0.397391 3.2821 0.443858 3.33584C 0.491006 3.39036 0.507005 3.44792 0.510996 3.48199C 0.514398 3.51104 0.509256 3.52097 0.513375 3.50375C 0.517091 3.48821 0.52565 3.46189 0.542335 3.4249C 0.576174 3.34987 0.628282 3.26404 0.684727 3.1845C 0.742702 3.10281 0.789396 3.0499 0.801649 3.03765L 0.0945424 2.33054ZM 0.0606973 4.22183C 0.242061 4.27365 0.364441 4.30113 0.421122 4.31504C 0.435732 4.31862 0.440301 4.31992 0.440131 4.31987C 0.439648 4.31973 0.43502 4.31838 0.427798 4.31584C 0.421163 4.3135 0.406802 4.30821 0.388439 4.29942C 0.371533 4.29132 0.338622 4.27431 0.301563 4.24506C 0.264919 4.21612 0.206334 4.16115 0.16397 4.07255C 0.117308 3.97496 0.105392 3.86775 0.124497 3.76766C 0.141667 3.67771 0.179746 3.61402 0.203207 3.58039C 0.227355 3.54577 0.250557 3.5224 0.262009 3.51141C 0.27451 3.49941 0.284446 3.49134 0.288201 3.48833C 0.293968 3.48372 0.297528 3.48131 0.285875 3.48973C 0.268412 3.50236 0.231497 3.52878 0.18916 3.56473C 0.100827 3.63974 -0.00254129 3.74831 -0.0965249 3.90808L 0.765409 4.4151C 0.795017 4.36477 0.821184 4.33994 0.836436 4.32699C 0.845892 4.31896 0.854282 4.31276 0.87165 4.30021C 0.877414 4.29604 0.89577 4.28291 0.913217 4.26895C 0.923097 4.26103 0.976778 4.21932 1.0234 4.15247C 1.07736 4.07512 1.1775 3.87407 1.06614 3.64118C 0.985759 3.47306 0.84198 3.40786 0.820494 3.39757C 0.752225 3.36486 0.674331 3.3475 0.65945 3.34385C 0.588346 3.3264 0.493204 3.30539 0.335418 3.26031L 0.0606973 4.22183ZM -0.0965249 3.90808C -0.42604 4.46825 -0.587114 4.94987 -0.452723 5.4447C -0.390188 5.67496 -0.273009 5.86965 -0.150958 6.04022C -0.0333679 6.20456 0.120056 6.38743 0.262238 6.56516L 1.04311 5.94047C 0.877067 5.73292 0.75907 5.59356 0.662287 5.4583C 0.569964 5.32928 0.529816 5.24703 0.512319 5.1826C 0.486643 5.08806 0.474676 4.90935 0.765409 4.4151L -0.0965249 3.90808ZM 0.262238 6.56516C 0.161454 6.43918 0.242693 6.33178 0.18844 6.4818C 0.168087 6.53808 0.137452 6.60632 0.0940041 6.69796C 0.0537488 6.78287 0.000821273 6.89125 -0.0473224 7.00004C -0.2356 7.42548 -0.482214 8.14066 0.0576614 8.8155L 0.83853 8.19081C 0.681622 7.99467 0.698381 7.78604 0.867131 7.40473C 0.908244 7.31183 0.950426 7.22585 0.997595 7.12636C 1.04157 7.0336 1.09067 6.92741 1.12884 6.82189C 1.19161 6.6483 1.30498 6.2678 1.04311 5.94047L 0.262238 6.56516ZM 0.0576614 8.8155C 0.267342 9.0776 0.486757 9.26509 0.811107 9.33615C 0.949137 9.36639 1.08642 9.37084 1.2076 9.37104C 1.26966 9.37115 1.33641 9.37 1.40261 9.36896C 1.47036 9.36789 1.54118 9.36685 1.61873 9.36685L 1.61873 8.36685C 1.53262 8.36685 1.45496 8.368 1.38682 8.36908C 1.31712 8.37018 1.26058 8.37113 1.20932 8.37105C 1.10388 8.37086 1.05451 8.36575 1.02511 8.35931C 1.01459 8.35701 0.976002 8.36265 0.83853 8.19081L 0.0576614 8.8155ZM 1.61873 9.36685C 1.81834 9.36685 1.80853 9.37789 1.79334 9.3708C 1.78865 9.36861 1.80062 9.37287 1.84113 9.4073C 1.88351 9.44333 1.9394 9.49684 2.02665 9.58409L 2.73376 8.87699C 2.5745 8.71772 2.41237 8.55615 2.2162 8.46461C 1.99845 8.363 1.78255 8.36685 1.61873 8.36685L 1.61873 9.36685ZM 2.02665 9.58409C 2.19864 9.75608 2.36558 9.89316 2.53188 9.98312C 2.69921 10.0737 2.90679 10.1378 3.13158 10.0919C 3.36132 10.045 3.51179 9.90326 3.60207 9.78227C 3.68808 9.66701 3.74344 9.5391 3.77935 9.44918C 3.79828 9.40177 3.81607 9.35361 3.83055 9.31474C 3.84604 9.27318 3.85839 9.24048 3.87039 9.2115C 3.899 9.14243 3.90576 9.14591 3.88422 9.16916C 3.84037 9.21647 3.73625 9.28142 3.60631 9.26259C 3.52546 9.25088 3.51526 9.21541 3.59141 9.28396L 4.26038 8.54066C 4.1342 8.4271 3.96273 8.3038 3.74973 8.27293C 3.48764 8.23495 3.28049 8.34944 3.15077 8.48942C 3.04335 8.60533 2.9814 8.74459 2.9465 8.82885C 2.92674 8.87655 2.90864 8.92491 2.89348 8.9656C 2.87732 9.00897 2.86426 9.04426 2.85067 9.07829C 2.83733 9.1117 2.82619 9.13692 2.8164 9.15636C 2.81165 9.16578 2.8078 9.17269 2.80488 9.17755C 2.80195 9.18243 2.80047 9.18441 2.8006 9.18423C 2.80074 9.18404 2.80311 9.18088 2.80803 9.17585C 2.813 9.17076 2.82097 9.16337 2.83228 9.15518C 2.85647 9.13764 2.89042 9.12053 2.93152 9.11213C 3.01645 9.09479 3.05351 9.12837 3.00772 9.10359C 2.96088 9.07825 2.87208 9.01531 2.73376 8.87699L 2.02665 9.58409ZM 3.59141 9.28396C 3.87731 9.54126 4.19628 9.8461 4.39923 10.0998L 5.1801 9.47509C 4.92183 9.15226 4.54926 8.80065 4.26038 8.54066L 3.59141 9.28396ZM 4.39923 10.0998C 4.50823 10.236 4.65914 10.403 4.85858 10.479C 4.97951 10.5251 5.12557 10.5407 5.27553 10.4916C 5.41488 10.4459 5.50792 10.3604 5.56303 10.2974C 5.65653 10.1905 5.72425 10.0441 5.74974 9.99341C 5.79101 9.91132 5.81545 9.86818 5.83929 9.83839L 5.05842 9.21369C 4.96113 9.33531 4.89537 9.46651 4.85628 9.54426C 4.83338 9.58982 4.8207 9.6154 4.80835 9.63757C 4.7957 9.66028 4.79665 9.65464 4.81038 9.63895C 4.82461 9.62269 4.87396 9.57086 4.96418 9.5413C 5.06501 9.50826 5.15649 9.52236 5.21476 9.54457C 5.26238 9.56272 5.27942 9.58258 5.26349 9.56826C 5.25 9.55614 5.22279 9.52846 5.1801 9.47509L 4.39923 10.0998ZM 5.83929 9.83839C 5.88645 9.77943 5.921 9.73827 5.94696 9.70954C 5.97477 9.67875 5.98192 9.6744 5.97391 9.68062C 5.96877 9.68461 5.95382 9.69574 5.92986 9.70792C 5.90535 9.72038 5.86754 9.7359 5.81823 9.74426C 5.76695 9.75295 5.7121 9.75234 5.65748 9.74055C 5.60432 9.72907 5.56264 9.70946 5.5336 9.69214C 5.50568 9.67549 5.48753 9.65982 5.47979 9.65279C 5.47196 9.64567 5.46889 9.64193 5.47225 9.64566C 5.47553 9.64931 5.48084 9.65546 5.49087 9.66746C 5.49865 9.67677 5.51403 9.69535 5.5269 9.71063C 5.58697 9.78193 5.67757 9.88401 5.81244 9.98891L 6.42638 9.19955C 6.37025 9.1559 6.33113 9.11316 6.29167 9.06632C 6.27741 9.0494 6.24204 9.00615 6.21575 8.97693C 6.18917 8.94737 6.13063 8.88386 6.04579 8.83326C 5.94371 8.77239 5.80675 8.73195 5.65114 8.75832C 5.51622 8.78118 5.41767 8.84648 5.36073 8.89067C 5.25478 8.97292 5.15194 9.09679 5.05842 9.21369L 5.83929 9.83839ZM 5.81244 9.98891C 5.9342 10.0836 6.05243 10.1642 6.16644 10.2191C 6.26818 10.2681 6.44571 10.3361 6.64941 10.289C 6.89282 10.2327 7.01645 10.0544 7.07031 9.93336C 7.11739 9.82752 7.13414 9.71765 7.14217 9.66399C 7.15419 9.58368 7.15586 9.55802 7.16495 9.50917C 7.1723 9.46969 7.17729 9.46214 7.17368 9.46952C 7.16747 9.48219 7.14599 9.51756 7.10076 9.54586C 7.05603 9.57386 7.02558 9.57142 7.04 9.57142L 7.04 8.57142C 6.87933 8.57142 6.71634 8.60676 6.57027 8.69817C 6.42372 8.78988 6.33212 8.91432 6.27565 9.02957C 6.22178 9.13953 6.19637 9.2481 6.18184 9.32613C 6.16906 9.3948 6.15736 9.48807 6.15319 9.51596C 6.14502 9.57051 6.14275 9.55814 6.15661 9.52696C 6.17727 9.48053 6.25351 9.35415 6.42401 9.3147C 6.55479 9.28444 6.63388 9.33433 6.6003 9.31816C 6.579 9.3079 6.52504 9.27629 6.42638 9.19955L 5.81244 9.98891ZM 7.04 9.57142C 7.02053 9.57142 7.04349 9.56622 7.13212 9.61613C 7.21768 9.66431 7.30797 9.72999 7.43207 9.81887C 7.54124 9.89708 7.68784 10.0017 7.84011 10.075C 7.98823 10.1463 8.22778 10.2311 8.49575 10.1545L 8.22103 9.19303C 8.30333 9.16951 8.33967 9.2056 8.27382 9.1739C 8.21211 9.1442 8.13396 9.09156 8.01438 9.00591C 7.90971 8.93094 7.76724 8.82613 7.62281 8.74479C 7.48145 8.66519 7.27718 8.57142 7.04 8.57142L 7.04 9.57142ZM 8.49575 10.1545C 8.66849 10.1052 8.83535 10.003 8.96808 9.90021C 9.1066 9.79289 9.24723 9.65435 9.35696 9.4973C 9.4595 9.35054 9.57571 9.12936 9.56848 8.87016C 9.55985 8.56055 9.38084 8.31558 9.11514 8.17492L 8.64725 9.0587C 8.65452 9.06255 8.63168 9.05203 8.6071 9.01529C 8.58085 8.97606 8.56983 8.93258 8.56887 8.89803C 8.56745 8.84713 8.58644 8.85411 8.53722 8.92456C 8.49518 8.98473 8.4295 9.05246 8.35563 9.10969C 8.31989 9.13738 8.28686 9.15899 8.25971 9.17415C 8.2308 9.19028 8.2177 9.19398 8.22103 9.19303L 8.49575 10.1545ZM 9.11514 8.17492C 9.05501 8.14309 9.01037 8.11728 8.97809 8.09689C 8.96215 8.08681 8.9505 8.07887 8.94236 8.07298C 8.93407 8.06698 8.93099 8.06426 8.9316 8.06479C 8.93192 8.06507 8.93899 8.07122 8.94935 8.08336C 8.95934 8.09508 8.97742 8.11823 8.99493 8.15289C 9.03417 8.23056 9.06836 8.36773 9.00686 8.51816C 8.95462 8.64594 8.86392 8.70434 8.83861 8.71945C 8.80852 8.73741 8.79074 8.74129 8.803 8.73755C 8.82742 8.7301 8.87756 8.71952 8.97213 8.7042C 9.13609 8.67764 9.41131 8.64152 9.66181 8.57323C 9.90121 8.50798 10.2337 8.38582 10.4536 8.11085L 9.67276 7.48616C 9.66041 7.50159 9.59368 7.55532 9.39882 7.60844C 9.21507 7.65852 9.02094 7.68326 8.81222 7.71707C 8.72045 7.73194 8.60842 7.75142 8.51131 7.78103C 8.4628 7.79583 8.39441 7.81998 8.32593 7.86087C 8.26224 7.8989 8.14536 7.98287 8.08122 8.13975C 8.00783 8.31927 8.0444 8.48907 8.10236 8.60379C 8.15318 8.7044 8.22447 8.7748 8.27291 8.81721C 8.37208 8.90403 8.50518 8.98349 8.64725 9.0587L 9.11514 8.17492ZM 10.4536 8.11085C 10.5926 7.93708 10.6222 7.7359 10.6242 7.59259C 10.6262 7.44346 10.5994 7.29255 10.565 7.15729C 10.4959 6.88551 10.3728 6.5892 10.2505 6.32917C 10.1261 6.06461 9.9923 5.81627 9.89115 5.6359C 9.84032 5.54525 9.79726 5.47091 9.76728 5.41955C 9.75034 5.39052 9.74264 5.37747 9.73369 5.36211C 9.72976 5.35538 9.72858 5.35329 9.72872 5.35355C 9.72889 5.35384 9.72949 5.35492 9.73038 5.35654C 9.7311 5.35785 9.73302 5.36138 9.73547 5.36615C 9.73633 5.3678 9.74405 5.3826 9.75223 5.40231C 9.75405 5.40668 9.76885 5.4412 9.77891 5.48747C 9.78463 5.51842 9.78997 5.61242 9.78369 5.67485C 9.74242 5.8072 9.5109 6.04235 9.32154 6.09265L 9.25916 5.0946C 9.06977 5.1449 8.83823 5.38007 8.79696 5.51244C 8.79068 5.57491 8.79602 5.66895 8.80175 5.69995C 8.81184 5.74633 8.8267 5.78101 8.82861 5.78561C 8.83697 5.80576 8.84501 5.82121 8.84631 5.82373C 8.85129 5.83342 8.85587 5.84154 8.8573 5.84408C 8.86129 5.85117 8.86597 5.85922 8.86977 5.86574C 8.87626 5.87688 8.89147 5.9028 8.90363 5.92364C 8.93187 5.97202 8.97185 6.04104 9.01892 6.12499C 9.11358 6.2938 9.235 6.51954 9.34562 6.75474C 9.45836 6.99448 9.55008 7.22361 9.59589 7.40375C 9.61896 7.49445 9.62465 7.55112 9.62427 7.57879C 9.62381 7.61227 9.616 7.5571 9.67276 7.48616L 10.4536 8.11085ZM 9.32154 6.09265C 10.0151 6.0493 10.6098 5.75096 10.8103 5.15929C 11.0041 4.5876 10.7396 3.9945 10.3031 3.558L 9.59598 4.2651C 9.88986 4.55898 9.88636 4.77 9.86321 4.8383C 9.84684 4.88662 9.74676 5.06412 9.25916 5.0946L 9.32154 6.09265ZM 10.3031 3.558C 10.1238 3.37868 9.92445 3.2894 9.72874 3.26062C 9.55814 3.23554 9.3948 3.26253 9.36606 3.26562C 9.33104 3.26938 9.37199 3.26111 9.43156 3.27258C 9.46913 3.27982 9.52602 3.29663 9.58592 3.33685C 9.64872 3.37901 9.69581 3.43417 9.72682 3.49206C 9.75566 3.54593 9.76544 3.59231 9.76904 3.61725C 9.77093 3.63034 9.77152 3.64032 9.77172 3.64629C 9.77191 3.65231 9.77174 3.65565 9.77173 3.65575C 9.77172 3.65591 9.77183 3.6538 9.77236 3.64906C 9.77288 3.64436 9.77375 3.6377 9.77516 3.62882C 9.77801 3.61078 9.78263 3.58634 9.7898 3.55404L 8.81362 3.33711C 8.79362 3.4271 8.77734 3.51888 8.77299 3.60563C 8.76919 3.68128 8.76958 3.82283 8.84527 3.96416C 8.94192 4.14464 9.1049 4.22804 9.24245 4.25453C 9.34714 4.2747 9.44371 4.26303 9.47291 4.25989C 9.52794 4.25398 9.53406 4.25213 9.56127 4.2503C 9.57831 4.24916 9.58372 4.25005 9.58326 4.24998C 9.56935 4.24794 9.57084 4.23996 9.59598 4.2651L 10.3031 3.558ZM 9.7898 3.55404C 9.86629 3.20984 9.88811 2.96701 9.87292 2.72277C 9.86045 2.52234 9.81388 2.27292 9.78648 2.05381L 8.79421 2.17784C 8.83582 2.51078 8.86424 2.61438 8.87485 2.78488C 8.88273 2.91157 8.87573 3.05759 8.81362 3.33711L 9.7898 3.55404ZM 9.78648 2.05381C 9.75132 1.77251 9.58873 1.57679 9.40268 1.45937C 9.23665 1.3546 9.05081 1.30956 8.91192 1.28518C 8.76866 1.26003 8.61865 1.24833 8.51316 1.23899C 8.45599 1.23394 8.411 1.22963 8.3731 1.22465C 8.35474 1.22224 8.34057 1.21998 8.32981 1.21797C 8.32454 1.21698 8.32058 1.21614 8.31778 1.2155C 8.31496 1.21485 8.31375 1.2145 8.3139 1.21454L 8.03918 2.17607C 8.16887 2.21312 8.32401 2.22617 8.42504 2.2351C 8.54806 2.24599 8.64784 2.25412 8.73902 2.27012C 8.7824 2.27774 8.81527 2.2858 8.83942 2.29361C 8.86406 2.30158 8.8717 2.30677 8.86899 2.30505C 8.85009 2.29313 8.80272 2.24591 8.79421 2.17784L 9.78648 2.05381ZM 8.3139 1.21454C 8.37117 1.23091 8.4388 1.27025 8.48959 1.3382C 8.53446 1.39825 8.54418 1.45135 8.54613 1.46427C 8.54733 1.47221 8.54482 1.44988 8.56099 1.33473C 8.5724 1.2535 8.59731 1.10091 8.59547 0.958488C 8.59365 0.817538 8.56673 0.571445 8.37098 0.375697L 7.66387 1.0828C 7.58351 1.00244 7.59494 0.923589 7.59556 0.9714C 7.59615 1.01774 7.58759 1.07543 7.57071 1.19566C 7.55858 1.28197 7.53297 1.45228 7.55736 1.6137C 7.57091 1.70336 7.6038 1.82342 7.68856 1.93683C 7.77923 2.05816 7.90346 2.13729 8.03918 2.17607L 8.3139 1.21454ZM 8.37098 0.375697C 8.21699 0.221707 7.96483 0.074967 7.72073 -0.0427715C 7.46047 -0.168297 7.14877 -0.289478 6.83426 -0.375267C 6.52654 -0.459203 6.18145 -0.518945 5.86687 -0.494434C 5.55989 -0.470516 5.15718 -0.350972 4.95618 0.0510287L 5.85061 0.498242C 5.82165 0.55615 5.78613 0.514888 5.94455 0.502544C 6.09538 0.490792 6.31391 0.519334 6.5711 0.589487C 6.8215 0.657786 7.07599 0.7565 7.2863 0.857934C 7.51275 0.967156 7.63551 1.05444 7.66387 1.0828L 8.37098 0.375697Z"/>
</defs>
</svg>
